<?xml version="1.0" encoding="UTF-8" standalone="no" ?>
<!DOCTYPE svg PUBLIC "-//W3C//DTD SVG 1.1//EN" "http://www.w3.org/Graphics/SVG/1.1/DTD/svg11.dtd">
<svg xmlns="http://www.w3.org/2000/svg" xmlns:xlink="http://www.w3.org/1999/xlink" version="1.1" width="1280" height="1024" viewBox="0 0 1280 1024" xml:space="preserve">
<desc>Created with Fabric.js 4.4.0</desc>
<defs>
</defs>
<g transform="matrix(1 0 0 1 640 512)" id="background-logo"  >
<rect style="stroke: none; stroke-width: 0; stroke-dasharray: none; stroke-linecap: butt; stroke-dashoffset: 0; stroke-linejoin: miter; stroke-miterlimit: 4; fill: rgb(50,102,181); fill-rule: nonzero; opacity: 1;"  paint-order="stroke"  x="-640" y="-512" rx="0" ry="0" width="1280" height="1024" />
</g>
<g transform="matrix(1.9211538461538462 0 0 1.9211538461538462 640 402.23161867179823)" id="logo-logo"  >
<g style=""  paint-order="stroke"   >
		<g transform="matrix(0.4935582618641294 0 0 0.4935582618641294 0 0)"  >
<path style="stroke: none; stroke-width: 1; stroke-dasharray: none; stroke-linecap: butt; stroke-dashoffset: 0; stroke-linejoin: miter; stroke-miterlimit: 4; fill: rgb(255,145,77); fill-rule: nonzero; opacity: 1;"  paint-order="stroke"  transform=" translate(-250.00000233870298, -249.99999995000002)" d="M 409.3173523 266.7354431 C 391.630249 248.5845947 386.29910279999996 188.3997345 390.62731929999995 167.8630676 C 412.1639709 159.9486999 427.55767819999994 139.3167114 427.55767819999994 115.0350799 C 427.55767819999994 83.9246902 402.33770749999996 58.704956 371.2273253999999 58.704956 C 350.31750479999994 58.704956 337.09011839999994 74.2140502 322.39007559999993 87.0419158 C 301.5357664999999 105.2402572 279.6670836999999 125.8466643 250.00010669999995 125.8466643 C 220.33312969999997 125.8466643 198.46415699999994 105.2403563 177.60993949999994 87.0419158 C 162.91004939999993 74.2140502 149.68273919999993 58.704955999999996 128.77268969999994 58.704955999999996 C 97.66252119999994 58.704955999999996 72.44255819999995 83.9246902 72.44255819999995 115.0350799 C 72.44255819999995 139.3167114 87.83624259999995 159.9486999 109.37268059999995 167.8630676 C 113.70111079999995 188.3999481 108.36974329999995 248.5845947 90.68263999999995 266.7354431 C 39.43269339999995 320.3332519 64.77960199999995 416.7204285 135.73449699999995 438.225708 C 140.74623099999994 439.6532898 159.84512319999993 440.6763306 185.04069509999994 441.2950439 C 180.08790579999993 436.8093872 175.69012439999995 431.1202392 172.19432059999994 423.8512268 L 327.80569449999996 423.8512268 C 324.30987539999995 431.1202393 319.91186519999997 436.8093872 314.95907579999994 441.2950439 C 340.15487659999997 440.6763305 359.25378409999996 439.6532897 364.2655027999999 438.225708 C 435.2203979 416.7204285 460.5673218 320.333252 409.3173523 266.7354431 z M 307.178894 164.019165 C 314.7524108 164.019165 320.8919982 170.1587524 320.8919982 177.73248289999998 C 320.8919982 185.30598449999997 314.7524108 191.44557189999998 307.178894 191.44557189999998 C 299.6051635 191.44557189999998 293.4655761 185.30598449999997 293.4655761 177.73248289999998 C 293.4655762 170.1587524 299.6051636 164.019165 307.178894 164.019165 z M 260.1665649 182.3383026 C 274.3569641 198.5045166 298.3824462 229.9855804 298.3824462 257.82174679999997 C 298.3824462 297.32336419999996 276.7210998 314.5268554 249.9998931 314.5268554 C 223.2789153 314.5268554 201.61734 297.3233642 201.61734 257.82174679999997 C 201.61734 229.98558039999998 225.6428069 198.5045166 239.833435 182.33830259999996 C 245.2241974 176.1971283 254.7758026 176.1971283 260.1665649 182.3383026 z M 192.821106 164.019165 C 200.39485169999998 164.019165 206.53442389999998 170.1587524 206.53442389999998 177.73248289999998 C 206.53442389999998 185.30598449999997 200.39485179999997 191.44557189999998 192.821106 191.44557189999998 C 185.2476044 191.44557189999998 179.108017 185.30598449999997 179.108017 177.73248289999998 C 179.108017 170.1587524 185.2476044 164.019165 192.821106 164.019165 z M 249.9998932 325.3829346 C 273.57357790000003 325.3829346 318.62814330000003 322.7432251 332.3539124 371.3110047 L 167.6461029 371.3110047 C 181.3718414 322.7432251 226.4261932 325.3829346 249.9998932 325.3829346 z M 193.5649567 378.4485474 C 208.18159490000002 398.1801758 201.9954682 377.927887 214.3663483 378.0293274 C 225.5863343 378.1212463 218.7214356 388.1259766 229.9023438 376.0225525 C 232.06498720000002 373.68167120000004 234.94706730000001 379.0085144 237.59625250000002 380.7799378 C 245.56935130000002 386.1115113 263.2512818 367.4264527 263.0468445 377.00219730000003 C 262.9377442 382.1253052 261.83813480000003 387.4413147 266.5451355 385.3726502 C 272.9352417 382.5646668 280.64065550000004 372.0887452 287.4115906 378.1610108 C 288.7167664 379.331543 287.7646485 381.5158692 287.5457764 383.25610359999996 C 286.6828919 390.1155702 296.231781 394.2745973 300.0605469 388.40945439999996 C 302.1610718 385.19192509999993 306.8651428 373.56558229999996 309.07724 379.62179569999995 C 312.1083984 387.92041019999994 316.1122437 387.00646979999993 320.6369629 381.7980041999999 C 323.905304 378.0356445999999 328.20977780000004 373.04379279999995 333.36563110000003 375.31326299999995 C 336.41058350000003 376.65390019999995 333.6922607 380.72097779999996 332.2800293 382.82577519999995 C 326.4620972 391.49710089999996 331.1463013 395.31005859999993 322.30310060000005 400.97729499999997 C 316.22155760000004 404.87475589999997 308.7767944 396.4584657 300.1545105000001 399.32064829999996 C 291.73641970000006 402.11486829999996 284.5545959000001 396.8194276 275.74978640000006 397.88967909999997 C 265.50787360000004 399.13476579999997 256.94226080000004 402.350464 246.20680240000007 399.05364999999995 C 231.72863770000006 394.60733039999997 215.30897530000007 403.21380619999996 200.98735050000008 398.56326299999995 C 182.44345100000007 392.54159549999997 186.50601200000008 394.37533579999996 170.3359528000001 398.85330209999995 C 153.3154297 403.5671082 183.6365814 365.0458374 193.5649567 378.4485474 z M 328.774292 416.6226196 L 171.2257233 416.6226196 C 167.9248505 416.6226196 165.2485504 413.9463196 165.2485504 410.64569090000003 C 165.2485504 407.34481810000005 167.9248504 404.668518 171.2257233 404.668518 L 328.774292 404.668518 C 332.0751648 404.668518 334.75146490000003 407.34481800000003 334.75146490000003 410.64569090000003 C 334.7514648 413.9463196 332.0751648 416.6226196 328.774292 416.6226196 z" stroke-linecap="round" />
</g>
		<g transform="matrix(0.4935582618641294 0 0 0.4935582618641294 -4.9639049858254225 49.84548333909743)"  >
<path style="stroke: none; stroke-width: 1; stroke-dasharray: none; stroke-linecap: butt; stroke-dashoffset: 0; stroke-linejoin: miter; stroke-miterlimit: 4; fill: rgb(255,145,77); fill-rule: nonzero; opacity: 1;"  paint-order="stroke"  transform=" translate(-239.94261829841338, -350.9920959)" d="M 236.1672974 339.7736816 C 234.2409363 339.7736816 234.2443238 336.7852172 236.1672974 336.7852172 C 238.0934296 336.7852173 238.090271 339.7736816 236.1672974 339.7736816 z M 242.4866943 358.4517517 C 240.5637207 358.4517517 240.5605621 361.44046019999996 242.4866943 361.44046019999996 C 244.4096527 361.4404602 244.4130402 358.4517517 242.4866943 358.4517517 z M 232.7503204 351.6067505 C 231.98117059999998 351.6067505 231.97982779999998 352.8019104 232.7503204 352.8019104 C 233.5196838 352.8019104 233.520813 351.6067505 232.7503204 351.6067505 z M 189.8897858 358.3485413 C 187.967041 358.3485413 187.9638825 361.3372193 189.8897858 361.3372193 C 191.812973 361.3372192 191.8161469 358.3485413 189.8897858 358.3485413 z M 255.8399506 339.7520142 C 255.0705719 339.7520142 255.06944280000002 340.94738770000004 255.8399506 340.94738770000004 C 256.6091003 340.9473877 256.6102295 339.7520142 255.8399506 339.7520142 z M 209.6609192 342.3088074 C 208.8917694 342.3088074 208.89042659999998 343.5042115 209.6609192 343.5042115 C 210.4302826 343.5042114 210.4314117 342.3088074 209.6609192 342.3088074 z M 221.2057343 364.0036011 C 220.43658449999998 364.0036011 220.43524169999998 365.19897460000004 221.2057343 365.19897460000004 C 221.9748688 365.1989746 221.9762268 364.0036011 221.2057343 364.0036011 z M 290.8613281 357.6500854 C 290.0919494 357.6500854 290.09082029999996 358.84570310000004 290.8613281 358.84570310000004 C 291.6304626 358.8457031 291.6318359 357.6500854 290.8613281 357.6500854 z M 267.0744019 358.1924438 C 266.3052369 358.1924438 266.3038941 359.3878479 267.0744019 359.3878479 C 267.84375 359.3878479 267.8448792 358.1924438 267.0744019 358.1924438 z M 286.8073425 347.8260803 C 284.8843689 347.8260803 284.8812256 350.8145447 286.8073425 350.8145447 C 288.7303162 350.8145447 288.73349 347.8260803 286.8073425 347.8260803 z M 275.5198364 339.5195618 C 274.7506714 339.5195618 274.74932859999996 340.71496590000004 275.5198364 340.71496590000004 C 276.2891846 340.7149658 276.2903137 339.5195618 275.5198364 339.5195618 z" stroke-linecap="round" />
</g>
		<g transform="matrix(0.4935582618641294 0 0 0.4935582618641294 -0.00000115428616709323 -9.82209254079305)"  >
<circle style="stroke: none; stroke-width: 1; stroke-dasharray: none; stroke-linecap: butt; stroke-dashoffset: 0; stroke-linejoin: miter; stroke-miterlimit: 4; fill: rgb(255,145,77); fill-rule: nonzero; opacity: 1;"  paint-order="stroke"  cx="0" cy="0" r="13.7130938" />
</g>
</g>
</g>
<g transform="matrix(1.7896835728948854 -0.6984731988429576 0.6984731988429576 1.7896835728948854 891.1102960577373 627.1869383127606)"  >
<g style=""  paint-order="stroke"   >
		<g transform="matrix(1 0 0 1 0 0)" id="093d489b-e072-4c9c-9c80-4109d3686bff-path-0"  >
<path style="stroke: rgb(50,102,181); stroke-width: 2.3814266554928003; stroke-dasharray: none; stroke-linecap: butt; stroke-dashoffset: 0; stroke-linejoin: miter; stroke-miterlimit: 4; fill: rgb(255,145,77); fill-rule: nonzero; opacity: 1;"  paint-order="stroke"  transform=" translate(-17.395, 18.495)" d="M 13.2 -2.64 L 13.2 -33.49 Q 11.43 -33.39 9.57 -33.39 L 9.57 -33.39 L 9.57 -2.54 Q 10.46 -2.59 11.39 -2.59 Q 12.31 -2.59 13.2 -2.64 L 13.2 -2.64 Z M 15.87 -2.64 L 16.58 -2.64 Q 23.41 -2.64 28.82 -2.29 L 28.82 -2.29 L 29.73 -9.09 Q 29.83 -9.6 30.2 -9.92 Q 30.57 -10.23 31.12 -10.23 Q 31.66 -10.23 32.03 -9.8 Q 32.4 -9.37 32.4 -8.94 L 32.4 -8.94 L 32.4 -8.73 L 31.31 -0.69 Q 31.23 -0.18 30.85 0.14 Q 30.47 0.46 29.96 0.46 L 29.96 0.46 L 29.91 0.46 Q 23.08 0 16.53 0 Q 9.98 0 3.86 0.46 L 3.86 0.46 L 3.73 0.46 Q 3.15 0.41 2.77 0.05 Q 2.39 -0.3 2.39 -0.85 Q 2.39 -1.4 2.74 -1.76 Q 3.1 -2.13 3.77 -2.2 Q 4.44 -2.26 5.27 -2.3 Q 6.09 -2.34 6.91 -2.39 L 6.91 -2.39 L 6.91 -33.34 Q 6.09 -33.39 5.28 -33.39 L 5.28 -33.39 L 3.68 -33.39 Q 3.15 -33.44 2.77 -33.81 Q 2.39 -34.18 2.39 -34.73 L 2.39 -34.73 Q 2.39 -35.29 2.79 -35.69 Q 3.2 -36.08 3.95 -36.05 Q 4.7 -36.03 5.59 -36.03 L 5.59 -36.03 L 7.39 -36.03 Q 18.13 -36.03 28.69 -37.45 L 28.69 -37.45 L 28.92 -37.45 Q 29.43 -37.45 29.78 -37.11 Q 30.14 -36.77 30.21 -36.31 L 30.21 -36.31 L 31.31 -27.73 L 31.31 -27.55 Q 31.31 -26.96 30.89 -26.61 Q 30.47 -26.25 29.97 -26.25 Q 29.48 -26.25 29.11 -26.57 Q 28.74 -26.89 28.64 -27.4 L 28.64 -27.4 L 27.73 -34.63 Q 22.7 -33.95 15.87 -33.59 L 15.87 -33.59 L 15.87 -16.86 Q 21.33 -17.09 24.4 -17.67 L 24.4 -17.67 L 24.65 -17.67 Q 25.19 -17.67 25.59 -17.28 Q 26 -16.88 26 -16.38 L 26 -16.38 Q 26 -15.31 24.91 -15.03 L 24.91 -15.03 Q 21.91 -14.45 15.87 -14.19 L 15.87 -14.19 L 15.87 -2.64 Z" stroke-linecap="round" />
</g>
</g>
</g>
<g transform="matrix(1.8559524179876175 -0.4962587256236732 0.4962587256236732 1.8559524179876175 818.3983752597328 651.6127646792027)"  >
<g style=""  paint-order="stroke"   >
		<g transform="matrix(1 0 0 1 0 0)" id="b09ae3ae-8012-4111-a919-fa6b8d7cb83c-path-0"  >
<path style="stroke: rgb(50,102,181); stroke-width: 2.3814266554928003; stroke-dasharray: none; stroke-linecap: butt; stroke-dashoffset: 0; stroke-linejoin: miter; stroke-miterlimit: 4; fill: rgb(255,145,77); fill-rule: nonzero; opacity: 1;"  paint-order="stroke"  transform=" translate(-17.165, 18.22)" d="M 18.26 -2.44 L 19.09 -33.69 Q 19.09 -33.69 15.44 -33.74 L 15.44 -33.74 L 14.88 -2.44 Q 15.31 -2.49 15.74 -2.49 L 15.74 -2.49 Q 16.55 -2.49 17.19 -2.49 Q 17.82 -2.49 18.26 -2.44 L 18.26 -2.44 Z M 4.32 -37.07 L 4.52 -37.07 Q 9.8 -36.36 18.33 -36.36 Q 26.86 -36.36 30.01 -36.61 L 30.01 -36.61 L 30.11 -36.61 Q 30.57 -36.61 30.95 -36.3 Q 31.33 -35.98 31.37 -35.74 Q 31.41 -35.5 31.48 -35.09 Q 31.56 -34.68 31.69 -34 Q 31.81 -33.31 32 -32.42 Q 32.2 -31.54 32.42 -30.57 L 32.42 -30.57 Q 33.01 -28.18 33.49 -26.84 L 33.49 -26.84 L 33.54 -26.41 Q 33.54 -25.87 33.12 -25.47 Q 32.7 -25.06 32.25 -25.06 L 32.25 -25.06 Q 31.28 -25.06 30.95 -26 L 30.95 -26 Q 29.63 -29.83 29.02 -33.85 L 29.02 -33.85 Q 26.13 -33.69 21.73 -33.69 L 21.73 -33.69 L 20.9 -2.34 Q 25.29 -2.18 25.7 -1.71 Q 26.1 -1.24 26.1 -0.67 Q 26.1 -0.1 25.68 0.27 Q 25.26 0.63 24.81 0.63 L 24.81 0.63 L 24.65 0.63 Q 21.15 0.2 16.58 0.2 Q 12.01 0.2 8.68 0.63 L 8.68 0.63 L 8.53 0.63 Q 7.97 0.63 7.58 0.2 Q 7.19 -0.23 7.19 -0.74 L 7.19 -0.74 Q 7.19 -1.24 7.52 -1.63 L 7.52 -1.63 Q 8.05 -2.16 12.21 -2.34 L 12.21 -2.34 L 12.8 -33.85 Q 8.79 -34 5.36 -34.28 L 5.36 -34.28 Q 5.21 -33.59 4.99 -32.6 Q 4.77 -31.61 4.52 -30.49 L 4.52 -30.49 Q 3.71 -27.19 3.48 -26.41 L 3.48 -26.41 Q 3.07 -25.06 2.13 -25.06 L 2.13 -25.06 Q 1.55 -25.06 1.17 -25.48 Q 0.79 -25.9 0.79 -26.2 L 0.79 -26.2 L 0.79 -26.61 Q 0.79 -26.71 1 -27.42 Q 1.22 -28.13 1.6 -29.73 Q 1.98 -31.33 2.29 -32.73 L 2.29 -32.73 Q 3.02 -35.9 3.02 -36.03 L 3.02 -36.03 Q 3.3 -37.07 4.32 -37.07 L 4.32 -37.07 Z" stroke-linecap="round" />
</g>
</g>
</g>
<g transform="matrix(1.8945151267064437 -0.3188174011439527 0.31881740114395274 1.894515126706444 754.5973603846076 665.0157774947706)"  >
<g style=""  paint-order="stroke"   >
		<g transform="matrix(1 0 0 1 0 0)" id="192752da-2c3a-40f0-b038-1d7229619416-path-0"  >
<path style="stroke: rgb(50,102,181); stroke-width: 2.3814266554928003; stroke-dasharray: none; stroke-linecap: butt; stroke-dashoffset: 0; stroke-linejoin: miter; stroke-miterlimit: 4; fill: rgb(255,145,77); fill-rule: nonzero; opacity: 1;"  paint-order="stroke"  transform=" translate(-11.829999999999998, 18.455000000000002)" d="M 13.05 -2.69 L 13.94 -33.9 Q 13.94 -33.9 12.09 -33.9 L 12.09 -33.9 Q 11.2 -33.9 10.23 -33.95 L 10.23 -33.95 L 9.67 -2.69 L 13.05 -2.69 Z M 3.38 -37.27 L 3.53 -37.27 Q 8.56 -36.56 13.1 -36.56 Q 17.65 -36.56 20.19 -36.82 L 20.19 -36.82 L 20.29 -36.82 Q 20.87 -36.82 21.25 -36.41 Q 21.63 -36 21.63 -35.48 Q 21.63 -34.96 21.28 -34.59 Q 20.92 -34.23 20.19 -34.15 L 20.19 -34.15 Q 18.87 -34.02 16.58 -33.9 L 16.58 -33.9 L 15.77 -2.59 Q 17.21 -2.49 19.75 -2.29 L 19.75 -2.29 Q 20.95 -2.03 20.95 -0.84 L 20.95 -0.84 Q 20.9 -0.28 20.5 0.04 Q 20.11 0.36 19.6 0.36 L 19.6 0.36 L 19.5 0.36 Q 11.4 -0.46 3.48 0.36 L 3.48 0.36 L 3.38 0.36 Q 2.79 0.36 2.41 -0.04 Q 2.03 -0.43 2.03 -0.94 L 2.03 -0.94 Q 2.03 -1.45 2.37 -1.83 Q 2.72 -2.21 3.44 -2.29 Q 4.16 -2.36 5.12 -2.44 Q 6.07 -2.51 7.01 -2.59 L 7.01 -2.59 L 7.59 -34.18 Q 5.41 -34.33 3.17 -34.63 L 3.17 -34.63 Q 2.67 -34.71 2.35 -35.09 Q 2.03 -35.47 2.03 -36.03 Q 2.03 -36.59 2.49 -36.93 Q 2.95 -37.27 3.38 -37.27 L 3.38 -37.27 Z" stroke-linecap="round" />
</g>
</g>
</g>
<g transform="matrix(1.9167324820796854 -0.1302639348874617 0.1302639348874617 1.9167324820796854 687.3153683946148 673.4692972479121)"  >
<g style=""  paint-order="stroke"   >
		<g transform="matrix(1 0 0 1 0 0)" id="ee03e493-7d3c-46ba-b84f-41b52c53de99-path-0"  >
<path style="stroke: rgb(50,102,181); stroke-width: 2.3814266554928003; stroke-dasharray: none; stroke-linecap: butt; stroke-dashoffset: 0; stroke-linejoin: miter; stroke-miterlimit: 4; fill: rgb(255,145,77); fill-rule: nonzero; opacity: 1;"  paint-order="stroke"  transform=" translate(-18.905, 18.196604422212204)" d="M 12.8 -1.29 L 12.8 -35.14 Q 10.87 -35.06 9.19 -34.84 L 9.19 -34.84 Q 9.17 -33.21 9.17 -31.14 Q 9.17 -29.07 9.18 -26.72 Q 9.19 -24.38 9.22 -21.87 Q 9.24 -19.37 9.28 -16.9 Q 9.32 -14.42 9.36 -12.09 Q 9.39 -9.75 9.45 -7.72 L 9.45 -7.72 Q 9.52 -3.02 9.52 -1.6 L 9.52 -1.6 Q 10.92 -1.45 12.8 -1.29 L 12.8 -1.29 Z M 16.91 -15.44 L 16.91 -15.44 Q 16.91 -15.44 15.44 -15.39 L 15.44 -15.39 L 15.44 -1.19 L 16.63 -1.19 Q 25.24 -1.19 27.98 -4.95 L 27.98 -4.95 Q 29.02 -6.35 29.02 -8.19 Q 29.02 -10.03 28.42 -11.15 Q 27.83 -12.26 26.84 -13.04 Q 25.85 -13.81 24.57 -14.28 Q 23.28 -14.75 21.94 -15.01 L 21.94 -15.01 Q 19.65 -15.44 16.91 -15.44 Z M 15.44 -18.15 L 18.61 -18.15 Q 32.65 -18.15 32.65 -26.51 L 32.65 -26.51 Q 32.65 -29.83 29.55 -32.04 L 29.55 -32.04 Q 25.67 -34.79 18.84 -35.17 L 18.84 -35.17 Q 16.96 -35.27 15.44 -35.19 L 15.44 -35.19 L 15.44 -18.15 Z M 6.5 -34.43 L 6.5 -34.43 L 3.86 -33.79 Q 3.28 -33.79 2.88 -34.21 Q 2.49 -34.63 2.49 -35.09 L 2.49 -35.09 Q 2.49 -36.08 3.43 -36.46 L 3.43 -36.46 Q 8.38 -37.86 15.08 -37.86 L 15.08 -37.86 Q 22.83 -37.86 28.18 -35.75 L 28.18 -35.75 Q 32.58 -34.02 34.38 -30.67 L 34.38 -30.67 Q 35.32 -28.89 35.32 -26.69 Q 35.32 -24.48 34.62 -22.79 Q 33.92 -21.1 32.7 -19.8 L 32.7 -19.8 Q 30.21 -17.21 26.15 -16.53 L 26.15 -16.53 Q 30.09 -15.11 31.33 -11.17 L 31.33 -11.17 Q 31.71 -9.93 31.71 -8.23 Q 31.71 -6.53 31.15 -5.07 Q 30.6 -3.61 29.57 -2.53 Q 28.54 -1.45 27.12 -0.72 Q 25.7 0 23.99 0.46 L 23.99 0.46 Q 20.77 1.29 16.33 1.45 L 16.33 1.45 Q 10.74 1.5 6.45 0.53 L 6.45 0.53 Q 3.94 -0.03 3.22 -0.51 L 3.22 -0.51 Q 2.49 -0.86 2.49 -1.56 Q 2.49 -2.26 2.93 -2.64 Q 3.38 -3.02 3.71 -3.02 L 3.71 -3.02 Q 4.16 -3.02 4.32 -2.95 L 4.32 -2.95 Q 5.15 -2.54 6.8 -2.13 L 6.8 -2.13 Q 6.78 -3.61 6.75 -5.97 Q 6.73 -8.33 6.69 -11.21 Q 6.65 -14.09 6.61 -17.28 Q 6.58 -20.46 6.55 -23.56 Q 6.53 -26.66 6.5 -29.48 Q 6.47 -32.3 6.5 -34.43 Z" stroke-linecap="round" />
</g>
</g>
</g>
<g transform="matrix(1.920790702495146 0.03735207892366353 -0.03735207892366353 1.920790702495146 640.9409666159105 710.2145945929119)"  >
<g style=""  paint-order="stroke"   >
		<g transform="matrix(1 0 0 1 0 0)" id="ebdc2159-bbce-4c9e-92b8-07ee173b98fc-path-0"  >
<path style="stroke: rgb(50,102,181); stroke-width: 2.3814266554928003; stroke-dasharray: none; stroke-linecap: butt; stroke-dashoffset: 0; stroke-linejoin: miter; stroke-miterlimit: 4; fill: rgb(255,145,77); fill-rule: nonzero; opacity: 1;"  paint-order="stroke"  transform=" translate(0, 0)" d="" stroke-linecap="round" />
</g>
</g>
</g>
<g transform="matrix(1.9102991170616366 0.20393475413780815 -0.20393475413780818 1.9102991170616368 567.1111935405731 671.5896302524204)"  >
<g style=""  paint-order="stroke"   >
		<g transform="matrix(1 0 0 1 0 0)" id="bfbf9bf2-3c8d-4190-9bbc-f94f50aaa3f7-path-0"  >
<path style="stroke: rgb(50,102,181); stroke-width: 2.3814266554928003; stroke-dasharray: none; stroke-linecap: butt; stroke-dashoffset: 0; stroke-linejoin: miter; stroke-miterlimit: 4; fill: rgb(255,145,77); fill-rule: nonzero; opacity: 1;"  paint-order="stroke"  transform=" translate(-18.7, 18.015)" d="M 6.8 -27.88 L 6.8 -27.88 Q 6.4 -26.43 6.4 -24.91 Q 6.4 -23.38 6.82 -22.14 Q 7.24 -20.9 8.53 -19.75 L 8.53 -19.75 Q 11.48 -17.16 18.76 -15.64 L 18.76 -15.64 Q 23.46 -14.63 25.89 -13.39 Q 28.31 -12.16 29.67 -10.83 Q 31.03 -9.5 31.41 -7.64 L 31.41 -7.64 Q 31.76 -8.68 31.76 -10.02 Q 31.76 -11.35 31.24 -12.52 Q 30.72 -13.69 29.87 -14.56 Q 29.02 -15.44 27.9 -16.1 Q 26.79 -16.76 25.59 -17.21 L 25.59 -17.21 Q 23.97 -17.85 21.68 -18.41 Q 19.4 -18.97 17.8 -19.37 Q 16.2 -19.78 14.68 -20.29 Q 13.15 -20.79 11.78 -21.46 Q 10.41 -22.12 9.34 -23.03 L 9.34 -23.03 Q 7.08 -24.98 6.8 -27.88 Z M 5.81 -8.48 L 5.81 -8.48 Q 11.73 -0.89 20.54 -0.89 L 20.54 -0.89 Q 25.97 -0.89 28.13 -3.55 L 28.13 -3.55 Q 28.97 -4.54 28.97 -5.87 Q 28.97 -7.19 28.39 -8.09 Q 27.8 -8.99 26.86 -9.7 Q 25.92 -10.41 24.74 -10.96 Q 23.56 -11.5 22.37 -11.91 L 22.37 -11.91 Q 20.46 -12.57 18.46 -12.97 Q 16.45 -13.38 14.68 -13.85 Q 12.9 -14.32 11.3 -14.98 Q 9.7 -15.64 8.33 -16.53 Q 6.96 -17.42 5.94 -18.64 L 5.94 -18.64 Q 3.81 -21.2 3.81 -25.11 L 3.81 -25.11 Q 3.81 -30.93 8.13 -34.33 L 8.13 -34.33 Q 12.09 -37.45 17.72 -37.45 L 17.72 -37.45 Q 20.9 -37.45 24.73 -36.16 L 24.73 -36.16 Q 28.44 -34.89 29.86 -33.24 L 29.86 -33.24 Q 30.44 -34.81 31.51 -37.07 L 31.51 -37.07 Q 31.94 -37.81 32.61 -37.81 Q 33.29 -37.81 33.67 -37.39 Q 34.05 -36.97 34.05 -36.58 Q 34.05 -36.18 33.31 -34.66 Q 32.58 -33.13 31.73 -30.38 Q 30.88 -27.63 30.52 -24.81 L 30.52 -24.81 Q 30.47 -24.3 30.1 -23.98 Q 29.73 -23.66 29.19 -23.66 Q 28.64 -23.66 28.26 -24.1 Q 27.88 -24.53 27.88 -24.96 L 27.88 -24.96 L 27.88 -25.11 Q 28.18 -27.8 28.97 -30.42 L 28.97 -30.42 Q 28.51 -31.81 24.53 -33.31 L 24.53 -33.31 Q 20.57 -34.84 17.47 -34.84 L 17.47 -34.84 Q 12.14 -34.84 10.18 -31.54 L 10.18 -31.54 Q 9.5 -30.39 9.47 -28.77 L 9.47 -28.77 Q 9.72 -25.06 14.19 -23.26 L 14.19 -23.26 Q 16.35 -22.34 18.46 -21.9 Q 20.57 -21.46 22.36 -21.04 Q 24.15 -20.62 26.48 -19.86 Q 28.82 -19.09 30.57 -17.85 L 30.57 -17.85 Q 34.43 -15.13 34.43 -9.88 L 34.43 -9.88 Q 34.43 -4.65 29.88 -1.27 L 29.88 -1.27 Q 25.75 1.78 20.59 1.78 L 20.59 1.78 Q 11.6 1.78 5.61 -4.62 L 5.61 -4.62 L 5.61 -4.01 Q 5.61 -2.41 5.71 -0.84 L 5.71 -0.84 L 5.71 -0.74 Q 5.71 -0.23 5.37 0.15 Q 5.03 0.53 4.46 0.56 Q 3.88 0.58 3.5 0.23 Q 3.12 -0.13 3.07 -0.81 L 3.07 -0.81 Q 2.97 -2.18 2.97 -4.37 L 2.97 -4.37 Q 2.97 -8.4 3.91 -13.1 L 3.91 -13.1 Q 4.19 -14.19 5.21 -14.19 L 5.21 -14.19 Q 5.79 -14.19 6.17 -13.75 Q 6.55 -13.3 6.55 -13.05 L 6.55 -13.05 L 6.55 -12.75 Q 6.55 -12.67 6.46 -12.34 Q 6.37 -12.01 6.28 -11.51 Q 6.2 -11.02 6.09 -10.56 L 6.09 -10.56 Q 6.02 -10.03 5.81 -8.48 Z" stroke-linecap="round" />
</g>
</g>
</g>
<g transform="matrix(1.8711993303465448 0.43525299160644143 -0.43525299160644143 1.871199330346545 484.00120485898503 658.2612178957478)"  >
<g style=""  paint-order="stroke"   >
		<g transform="matrix(0.9999999999999999 0 0 1 0 0)" id="e73216cc-5c9b-4f95-9257-90903b419e9b-path-0"  >
<path style="stroke: rgb(50,102,181); stroke-width: 2.3814266554928003; stroke-dasharray: none; stroke-linecap: butt; stroke-dashoffset: 0; stroke-linejoin: miter; stroke-miterlimit: 4; fill: rgb(255,145,77); fill-rule: nonzero; opacity: 1;"  paint-order="stroke"  transform=" translate(-19.894999999999996, 17.67)" d="M 12.59 -33.49 L 8.94 -33.49 Q 7.85 -26.94 7.85 -19.45 L 7.85 -19.45 Q 7.85 -9.62 10.71 -5.23 L 10.71 -5.23 Q 12.7 -2.26 16.02 -1.29 L 16.02 -1.29 Q 12.09 -5.94 11.71 -14.47 L 11.71 -14.47 Q 11.6 -16.81 11.6 -19.04 L 11.6 -19.04 Q 11.6 -26.36 12.59 -33.49 L 12.59 -33.49 Z M 28.89 -5.99 Q 29.99 -8.15 30.52 -11.07 Q 31.05 -13.99 31.05 -19.23 Q 31.05 -24.48 29.91 -33.85 L 29.91 -33.85 L 25.64 -33.49 L 25.49 -33.49 Q 24.93 -33.49 24.55 -33.91 Q 24.17 -34.33 24.17 -34.84 L 24.17 -34.84 Q 24.17 -35.34 24.51 -35.72 Q 24.86 -36.11 25.37 -36.18 L 25.37 -36.18 L 36.51 -37.07 L 36.61 -37.07 Q 37.15 -37.07 37.53 -36.68 Q 37.91 -36.28 37.91 -35.75 Q 37.91 -35.22 37.57 -34.85 Q 37.22 -34.48 36.71 -34.43 L 36.71 -34.43 L 32.55 -34.1 Q 33.67 -24.22 33.74 -17.32 L 33.74 -17.32 Q 33.39 -5.21 27.73 -0.86 L 27.73 -0.86 Q 24.38 1.73 19.09 1.73 L 19.09 1.73 Q 13.51 1.73 10.11 -1.88 L 10.11 -1.88 Q 5.15 -7.11 5.15 -19.55 L 5.15 -19.55 Q 5.15 -27.12 6.25 -33.49 L 6.25 -33.49 L 3.22 -33.49 Q 2.64 -33.49 2.26 -33.88 Q 1.88 -34.28 1.88 -34.84 L 1.88 -34.84 Q 1.88 -35.39 2.26 -35.79 Q 2.64 -36.18 3.22 -36.18 L 3.22 -36.18 L 19.14 -36.18 Q 19.68 -36.18 20.08 -35.79 Q 20.49 -35.39 20.49 -34.84 L 20.49 -34.84 Q 20.49 -34.28 20.08 -33.88 Q 19.68 -33.49 19.14 -33.49 L 19.14 -33.49 L 15.29 -33.49 Q 14.24 -26.84 14.24 -18.92 L 14.24 -18.92 Q 14.24 -1.35 21.99 -1.35 L 21.99 -1.35 Q 26.51 -1.35 28.89 -5.99 L 28.89 -5.99 Z" stroke-linecap="round" />
</g>
</g>
</g>
<g transform="matrix(1.7983044269729884 0.6759684079312199 -0.6759684079312199 1.7983044269729886 397.62698089284095 629.76340452928)"  >
<g style=""  paint-order="stroke"   >
		<g transform="matrix(1 0 0 1 0 0)" id="ff04088b-9880-4a5c-8333-86552aa7509c-path-0"  >
<path style="stroke: rgb(50,102,181); stroke-width: 2.3814266554928003; stroke-dasharray: none; stroke-linecap: butt; stroke-dashoffset: 0; stroke-linejoin: miter; stroke-miterlimit: 4; fill: rgb(255,145,77); fill-rule: nonzero; opacity: 1;"  paint-order="stroke"  transform=" translate(-21.265, 18.849999999999998)" d="M 13.05 -2.59 L 13.94 -34.28 Q 13.94 -34.28 12.09 -34.28 L 12.09 -34.28 Q 11.2 -34.28 10.23 -34.33 L 10.23 -34.33 L 9.67 -2.59 L 13.05 -2.59 Z M 29.17 -37.4 L 29.33 -37.4 Q 30.57 -37.22 32.25 -37.22 L 32.25 -37.22 Q 35.55 -37.22 38.85 -38.11 L 38.85 -38.11 Q 38.95 -38.16 39.36 -38.16 Q 39.76 -38.16 40.13 -37.77 Q 40.5 -37.38 40.5 -36.92 L 40.5 -36.92 Q 40.5 -35.85 39.61 -35.6 L 39.61 -35.6 Q 37.68 -35.06 36.08 -34.84 L 36.08 -34.84 Q 37.27 -27.57 37.27 -21.05 L 37.27 -21.05 Q 37.27 -11.5 35.93 -0.69 L 35.93 -0.69 Q 35.62 0.46 34.67 0.46 Q 33.72 0.46 33.39 -0.36 L 33.39 -0.36 Q 31.38 -5.21 27.55 -12.2 Q 23.71 -19.2 22.09 -22.12 L 22.09 -22.12 Q 19.27 -27.09 16.53 -31.92 L 16.53 -31.92 L 15.77 -2.49 Q 17.21 -2.39 19.75 -2.18 L 19.75 -2.18 Q 20.26 -2.11 20.6 -1.73 Q 20.95 -1.35 20.95 -0.8 Q 20.95 -0.25 20.52 0.1 Q 20.08 0.46 19.6 0.46 L 19.6 0.46 L 19.5 0.46 Q 11.4 -0.36 3.48 0.46 L 3.48 0.46 L 3.38 0.46 Q 2.82 0.46 2.42 0.06 Q 2.03 -0.33 2.03 -0.84 L 2.03 -0.84 Q 2.03 -1.35 2.37 -1.73 Q 2.72 -2.11 3.44 -2.18 Q 4.16 -2.26 5.12 -2.34 Q 6.07 -2.41 7.01 -2.49 L 7.01 -2.49 L 7.59 -34.53 Q 5.41 -34.68 3.17 -34.99 L 3.17 -34.99 Q 2.67 -35.06 2.35 -35.46 Q 2.03 -35.85 2.03 -36.41 Q 2.03 -36.97 2.49 -37.31 Q 2.95 -37.65 3.38 -37.65 L 3.38 -37.65 L 3.53 -37.65 Q 9.17 -36.92 14.04 -36.92 L 14.04 -36.92 L 15.92 -36.92 Q 16.66 -36.92 16.91 -36.52 Q 17.16 -36.13 17.72 -35.17 Q 18.28 -34.2 19.17 -32.65 Q 20.06 -31.1 21.21 -29.07 Q 22.37 -27.04 23.68 -24.73 Q 24.98 -22.42 26.36 -19.93 Q 27.73 -17.44 29.05 -14.98 L 29.05 -14.98 Q 32.22 -9.09 33.85 -5.76 L 33.85 -5.76 Q 34.63 -13.69 34.63 -19.55 L 34.63 -19.55 Q 34.63 -27.19 33.44 -34.63 L 33.44 -34.63 Q 33.11 -34.58 32.8 -34.58 L 32.8 -34.58 L 32.14 -34.58 Q 28.69 -34.58 28.26 -35.08 Q 27.83 -35.57 27.83 -36.11 Q 27.83 -36.64 28.25 -37.02 Q 28.67 -37.4 29.17 -37.4 L 29.17 -37.4 Z" stroke-linecap="round" />
</g>
</g>
</g>
<g transform="matrix(1.6554205624910852 -0.9748922309021723 0.9748922309021724 1.6554205624910854 1164.721600393263 633.602212313452)"  >
<g style=""  paint-order="stroke"   >
		<g transform="matrix(1 0 0 1 0 0)" id="df116626-09a1-4f3e-8244-aa1986a7dce4-path-0"  >
<path style="stroke: none; stroke-width: 0; stroke-dasharray: none; stroke-linecap: butt; stroke-dashoffset: 0; stroke-linejoin: miter; stroke-miterlimit: 4; fill: rgb(255,145,77); fill-rule: nonzero; opacity: 1;"  paint-order="stroke"  transform=" translate(-4.385000000000001, 6.19)" d="M 3.42 -10.74 L 3.42 -10.74 Q 3.36 -10.74 3.01 -10.68 L 3.01 -10.68 Q 2.68 -10.63 2.4 -10.33 L 2.4 -10.33 Q 2.25 -10.16 2.15 -9.92 L 2.15 -9.92 Q 2.05 -9.67 2.05 -9.32 L 2.05 -9.32 Q 3.59 -9.32 6.64 -9.32 L 6.64 -9.32 Q 6.64 -8.77 6.64 -7.66 L 6.64 -7.66 Q 5.12 -7.66 2.05 -7.66 L 2.05 -7.66 Q 2.05 -5.66 2.05 -1.64 L 2.05 -1.64 Q 4.16 -1.64 8.38 -1.64 L 8.38 -1.64 Q 8.38 -1.09 8.38 0 L 8.38 0 Q 6.27 0 2.05 0 L 2.05 0 Q 2.05 0.02 2.05 0.02 L 2.05 0.02 Q 1.5 0.02 0.39 0.02 L 0.39 0.02 Q 0.39 -4.12 0.39 -12.4 L 0.39 -12.4 Q 0.82 -12.4 1.23 -12.4 L 1.23 -12.4 Q 1.64 -12.4 2.05 -12.4 L 2.05 -12.4 Q 4.16 -12.4 8.38 -12.4 L 8.38 -12.4 Q 8.38 -11.84 8.38 -10.74 L 8.38 -10.74 Q 7.13 -10.74 5.9 -10.74 L 5.9 -10.74 Q 4.65 -10.74 3.42 -10.74 Z" stroke-linecap="round" />
</g>
</g>
</g>
<g transform="matrix(1.6886203159350999 -0.916184222306278 0.916184222306278 1.6886203159350999 1133.1890654928059 651.4113015965025)"  >
<g style=""  paint-order="stroke"   >
		<g transform="matrix(1 0 0 1 0 0)" id="8361cf3c-36ab-4343-a5ff-04cc52ed8226-path-0"  >
<path style="stroke: none; stroke-width: 0; stroke-dasharray: none; stroke-linecap: butt; stroke-dashoffset: 0; stroke-linejoin: miter; stroke-miterlimit: 4; fill: rgb(255,145,77); fill-rule: nonzero; opacity: 1;"  paint-order="stroke"  transform=" translate(-4.435, 6.2)" d="M 8.48 -6.93 L 8.48 -6.93 Q 8.48 -4.63 8.48 0 L 8.48 0 Q 7.93 0 6.84 0 L 6.84 0 Q 6.84 -2.09 6.84 -6.25 L 6.84 -6.25 Q 6.35 -6.72 5.41 -7.66 L 5.41 -7.66 Q 4.3 -7.66 2.05 -7.66 L 2.05 -7.66 Q 2.05 -5.1 2.05 0 L 2.05 0 Q 1.5 0 0.39 0 L 0.39 0 Q 0.39 -4.14 0.39 -12.4 L 0.39 -12.4 Q 0.63 -12.4 0.86 -12.4 L 0.86 -12.4 Q 1.07 -12.4 1.31 -12.4 L 1.31 -12.4 Q 2.89 -12.4 6.07 -12.4 L 6.07 -12.4 Q 6.07 -12.38 6.07 -12.38 L 6.07 -12.38 Q 6.07 -12.38 6.09 -12.4 L 6.09 -12.4 Q 6.88 -11.6 8.46 -10.02 L 8.46 -10.02 Q 8.16 -9.73 7.87 -9.45 L 7.87 -9.45 Q 7.58 -9.16 7.29 -8.87 L 7.29 -8.87 Q 7.17 -8.73 6.91 -8.5 L 6.91 -8.5 Q 7.3 -8.11 7.7 -7.71 L 7.7 -7.71 Q 8.09 -7.32 8.48 -6.93 Z M 6.11 -10.02 L 6.11 -10.02 Q 5.88 -10.27 5.41 -10.74 L 5.41 -10.74 Q 4.75 -10.74 3.4 -10.74 L 3.4 -10.74 Q 3.36 -10.74 3.01 -10.68 L 3.01 -10.68 Q 2.68 -10.63 2.38 -10.33 L 2.38 -10.33 Q 2.23 -10.18 2.13 -9.92 L 2.13 -9.92 Q 2.03 -9.67 2.05 -9.3 L 2.05 -9.3 Q 3.16 -9.3 5.39 -9.3 L 5.39 -9.3 Q 5.59 -9.49 5.76 -9.67 L 5.76 -9.67 Q 5.94 -9.84 6.11 -10.02 Z" stroke-linecap="round" />
</g>
</g>
</g>
<g transform="matrix(1.7197388890642549 -0.8563470406510195 0.8563470406510195 1.7197388890642549 1100.9096275135284 668.2258958879306)"  >
<g style=""  paint-order="stroke"   >
		<g transform="matrix(1 0 0 1 0 0)" id="c1511a0a-d19f-47c4-95dc-9d84065cc743-path-0"  >
<path style="stroke: none; stroke-width: 0; stroke-dasharray: none; stroke-linecap: butt; stroke-dashoffset: 0; stroke-linejoin: miter; stroke-miterlimit: 4; fill: rgb(255,145,77); fill-rule: nonzero; opacity: 1;"  paint-order="stroke"  transform=" translate(-4.385000000000001, 6.19)" d="M 3.42 -10.74 L 3.42 -10.74 Q 3.36 -10.74 3.01 -10.68 L 3.01 -10.68 Q 2.68 -10.63 2.4 -10.33 L 2.4 -10.33 Q 2.25 -10.16 2.15 -9.92 L 2.15 -9.92 Q 2.05 -9.67 2.05 -9.32 L 2.05 -9.32 Q 3.59 -9.32 6.64 -9.32 L 6.64 -9.32 Q 6.64 -8.77 6.64 -7.66 L 6.64 -7.66 Q 5.12 -7.66 2.05 -7.66 L 2.05 -7.66 Q 2.05 -5.66 2.05 -1.64 L 2.05 -1.64 Q 4.16 -1.64 8.38 -1.64 L 8.38 -1.64 Q 8.38 -1.09 8.38 0 L 8.38 0 Q 6.27 0 2.05 0 L 2.05 0 Q 2.05 0.02 2.05 0.02 L 2.05 0.02 Q 1.5 0.02 0.39 0.02 L 0.39 0.02 Q 0.39 -4.12 0.39 -12.4 L 0.39 -12.4 Q 0.82 -12.4 1.23 -12.4 L 1.23 -12.4 Q 1.64 -12.4 2.05 -12.4 L 2.05 -12.4 Q 4.16 -12.4 8.38 -12.4 L 8.38 -12.4 Q 8.38 -11.84 8.38 -10.74 L 8.38 -10.74 Q 7.13 -10.74 5.9 -10.74 L 5.9 -10.74 Q 4.65 -10.74 3.42 -10.74 Z" stroke-linecap="round" />
</g>
</g>
</g>
<g transform="matrix(1.7487379290521559 -0.7954544336956666 0.7954544336956667 1.748737929052156 1068.0996472902355 683.8219580483589)"  >
<g style=""  paint-order="stroke"   >
		<g transform="matrix(1 0 0 1 0 0)" id="b449261d-21d7-46cf-8411-ce5038e3f903-path-0"  >
<path style="stroke: none; stroke-width: 0; stroke-dasharray: none; stroke-linecap: butt; stroke-dashoffset: 0; stroke-linejoin: miter; stroke-miterlimit: 4; fill: rgb(255,145,77); fill-rule: nonzero; opacity: 1;"  paint-order="stroke"  transform=" translate(-4.375, 6.2)" d="M 6.72 -12.4 L 6.72 -12.4 Q 7.27 -12.4 8.36 -12.4 L 8.36 -12.4 Q 8.36 -8.28 8.36 0 L 8.36 0 Q 7.81 0 6.72 0 L 6.72 0 Q 6.72 -2.56 6.72 -7.7 L 6.72 -7.7 Q 5.61 -7.7 3.42 -7.7 L 3.42 -7.7 Q 3.36 -7.7 3.05 -7.64 L 3.05 -7.64 Q 2.73 -7.58 2.44 -7.32 L 2.44 -7.32 Q 2.3 -7.19 2.19 -6.97 L 2.19 -6.97 Q 2.07 -6.76 2.05 -6.45 L 2.05 -6.45 Q 2.05 -4.3 2.05 0 L 2.05 0 Q 1.5 0 0.39 0 L 0.39 0 Q 0.39 -4.14 0.39 -12.4 L 0.39 -12.4 Q 0.96 -12.4 2.05 -12.4 L 2.05 -12.4 Q 2.05 -11.39 2.05 -9.34 L 2.05 -9.34 Q 3.61 -9.34 6.72 -9.34 L 6.72 -9.34 Q 6.72 -10.1 6.72 -10.88 L 6.72 -10.88 Q 6.72 -11.64 6.72 -12.4 Z" stroke-linecap="round" />
</g>
</g>
</g>
<g transform="matrix(1.7755816953414953 -0.7335814499835297 0.7335814499835298 1.7755816953414956 1034.8395195549472 698.2570018706056)"  >
<g style=""  paint-order="stroke"   >
		<g transform="matrix(1 0 0 1.0000000000000002 0 0)" id="34826a49-a5f2-4d18-9e8a-515eb2a47d1f-path-0"  >
<path style="stroke: none; stroke-width: 0; stroke-dasharray: none; stroke-linecap: butt; stroke-dashoffset: 0; stroke-linejoin: miter; stroke-miterlimit: 4; fill: rgb(255,145,77); fill-rule: nonzero; opacity: 1;"  paint-order="stroke"  transform=" translate(-4.405, 6.2)" d="M 8.38 -12.4 L 8.38 -12.4 Q 8.38 -11.86 8.38 -10.76 L 8.38 -10.76 Q 7.77 -10.76 6.54 -10.76 L 6.54 -10.76 Q 6.37 -10.74 5.84 -10.55 L 5.84 -10.55 Q 5.31 -10.35 5.23 -9.55 L 5.23 -9.55 Q 5.23 -6.37 5.23 0 L 5.23 0 Q 4.69 0 3.57 0 L 3.57 0 Q 3.57 -3.59 3.57 -10.76 L 3.57 -10.76 Q 2.54 -10.76 0.43 -10.76 L 0.43 -10.76 Q 0.43 -11.31 0.43 -12.4 L 0.43 -12.4 Q 1.48 -12.4 3.57 -12.4 L 3.57 -12.4 Q 4.14 -12.4 5.23 -12.4 L 5.23 -12.4 Q 6.02 -12.4 6.82 -12.4 L 6.82 -12.4 Q 7.6 -12.4 8.38 -12.4 Z" stroke-linecap="round" />
</g>
</g>
</g>
<g transform="matrix(1.8002371036933522 -0.6708043463465972 0.6708043463465974 1.8002371036933524 1001.0237389359686 711.556726763035)"  >
<g style=""  paint-order="stroke"   >
		<g transform="matrix(0.9999999999999999 0 0 1 0 0)" id="dc58112f-7a72-4a0d-b35d-3db8245283a7-path-0"  >
<path style="stroke: none; stroke-width: 0; stroke-dasharray: none; stroke-linecap: butt; stroke-dashoffset: 0; stroke-linejoin: miter; stroke-miterlimit: 4; fill: rgb(255,145,77); fill-rule: nonzero; opacity: 1;"  paint-order="stroke"  transform=" translate(-4.385000000000001, 6.19)" d="M 3.42 -10.74 L 3.42 -10.74 Q 3.36 -10.74 3.01 -10.68 L 3.01 -10.68 Q 2.68 -10.63 2.4 -10.33 L 2.4 -10.33 Q 2.25 -10.16 2.15 -9.92 L 2.15 -9.92 Q 2.05 -9.67 2.05 -9.32 L 2.05 -9.32 Q 3.59 -9.32 6.64 -9.32 L 6.64 -9.32 Q 6.64 -8.77 6.64 -7.66 L 6.64 -7.66 Q 5.12 -7.66 2.05 -7.66 L 2.05 -7.66 Q 2.05 -5.66 2.05 -1.64 L 2.05 -1.64 Q 4.16 -1.64 8.38 -1.64 L 8.38 -1.64 Q 8.38 -1.09 8.38 0 L 8.38 0 Q 6.27 0 2.05 0 L 2.05 0 Q 2.05 0.02 2.05 0.02 L 2.05 0.02 Q 1.5 0.02 0.39 0.02 L 0.39 0.02 Q 0.39 -4.12 0.39 -12.4 L 0.39 -12.4 Q 0.82 -12.4 1.23 -12.4 L 1.23 -12.4 Q 1.64 -12.4 2.05 -12.4 L 2.05 -12.4 Q 4.16 -12.4 8.38 -12.4 L 8.38 -12.4 Q 8.38 -11.84 8.38 -10.74 L 8.38 -10.74 Q 7.13 -10.74 5.9 -10.74 L 5.9 -10.74 Q 4.65 -10.74 3.42 -10.74 Z" stroke-linecap="round" />
</g>
</g>
</g>
<g transform="matrix(1.822673766962653 -0.6072004939209856 0.6072004939209856 1.822673766962653 966.7508522349262 723.6057801948476)"  >
<g style=""  paint-order="stroke"   >
		<g transform="matrix(1 0 0 1 0 0)" id="1012a217-4627-4713-b570-353ec8b00749-path-0"  >
<path style="stroke: none; stroke-width: 0; stroke-dasharray: none; stroke-linecap: butt; stroke-dashoffset: 0; stroke-linejoin: miter; stroke-miterlimit: 4; fill: rgb(255,145,77); fill-rule: nonzero; opacity: 1;"  paint-order="stroke"  transform=" translate(-4.375, 6.21)" d="M 3.71 -9.38 L 3.71 -9.38 Q 4.88 -9.38 6.04 -9.38 L 6.04 -9.38 Q 7.21 -9.38 8.36 -9.38 L 8.36 -9.38 Q 8.36 -8.83 8.36 -7.71 L 8.36 -7.71 Q 8.36 -6.37 8.36 -5.02 L 8.36 -5.02 Q 8.36 -3.67 8.36 -2.34 L 8.36 -2.34 Q 7.79 -1.76 7.21 -1.17 L 7.21 -1.17 Q 6.62 -0.59 6.04 -0.02 L 6.04 -0.02 Q 4.86 -0.02 3.67 -0.02 L 3.67 -0.02 Q 2.5 -0.02 1.31 -0.02 L 1.31 -0.02 Q 1.02 -0.02 0.39 -0.02 L 0.39 -0.02 Q 0.39 -4.14 0.39 -12.4 L 0.39 -12.4 Q 0.63 -12.4 0.86 -12.4 L 0.86 -12.4 Q 1.07 -12.4 1.31 -12.4 L 1.31 -12.4 Q 3.11 -12.4 6.72 -12.4 L 6.72 -12.4 Q 6.72 -11.86 6.72 -10.76 L 6.72 -10.76 Q 5.63 -10.76 3.4 -10.76 L 3.4 -10.76 Q 3.36 -10.76 3.01 -10.68 L 3.01 -10.68 Q 2.66 -10.63 2.38 -10.33 L 2.38 -10.33 Q 2.23 -10.16 2.13 -9.9 L 2.13 -9.9 Q 2.03 -9.65 2.05 -9.3 L 2.05 -9.3 Q 2.05 -9.22 2.05 -9.14 L 2.05 -9.14 Q 2.05 -9.08 2.05 -9.04 L 2.05 -9.04 Q 2.05 -6.58 2.05 -1.66 L 2.05 -1.66 Q 3.14 -1.66 5.37 -1.66 L 5.37 -1.66 Q 5.82 -2.11 6.72 -3.01 L 6.72 -3.01 Q 6.72 -4.59 6.72 -7.71 L 6.72 -7.71 Q 5.72 -7.71 3.71 -7.71 L 3.71 -7.71 Q 3.71 -8.13 3.71 -8.54 L 3.71 -8.54 Q 3.71 -8.96 3.71 -9.38 Z" stroke-linecap="round" />
</g>
</g>
</g>
<g transform="matrix(1.8428640325495274 -0.5428482827890402 0.5428482827890403 1.8428640325495276 932.1234525401853 734.4680316617431)"  >
<g style=""  paint-order="stroke"   >
		<g transform="matrix(1 0 0 1 0 0)" id="aab64e22-4cea-4e4d-a61b-79d81fa92d56-path-0"  >
<path style="stroke: none; stroke-width: 0; stroke-dasharray: none; stroke-linecap: butt; stroke-dashoffset: 0; stroke-linejoin: miter; stroke-miterlimit: 4; fill: rgb(255,145,77); fill-rule: nonzero; opacity: 1;"  paint-order="stroke"  transform=" translate(-4.385000000000001, 6.21)" d="M 8.38 -2.32 L 8.38 -2.32 Q 7.6 -1.56 6.07 -0.04 L 6.07 -0.04 Q 6.07 -0.02 6.07 0 L 6.07 0 Q 4.94 0 2.7 0 L 2.7 0 Q 2.7 -0.02 2.7 -0.04 L 2.7 -0.04 Q 1.93 -0.8 0.41 -2.32 L 0.41 -2.32 Q 0.41 -2.32 0.39 -2.32 L 0.39 -2.32 Q 0.39 -2.32 0.39 -2.34 L 0.39 -2.34 Q 0.39 -2.34 0.39 -2.34 L 0.39 -2.34 Q 0.39 -2.34 0.39 -2.34 L 0.39 -2.34 Q 0.39 -4.3 0.39 -6.23 L 0.39 -6.23 Q 0.39 -8.18 0.39 -10.12 L 0.39 -10.12 Q 0.98 -10.68 1.54 -11.27 L 1.54 -11.27 Q 2.13 -11.84 2.7 -12.42 L 2.7 -12.42 Q 3.54 -12.42 4.39 -12.42 L 4.39 -12.42 Q 5.23 -12.42 6.07 -12.42 L 6.07 -12.42 Q 6.86 -11.64 8.38 -10.12 L 8.38 -10.12 Q 8.38 -10.12 8.38 -10.12 L 8.38 -10.12 Q 8.38 -8.16 8.38 -6.21 L 8.38 -6.21 Q 8.38 -4.28 8.38 -2.32 Z M 2.05 -9.43 L 2.05 -9.43 Q 2.05 -7.3 2.05 -3.03 L 2.05 -3.03 Q 2.5 -2.56 3.42 -1.66 L 3.42 -1.66 Q 4.06 -1.66 5.37 -1.66 L 5.37 -1.66 Q 5.82 -2.11 6.72 -3.01 L 6.72 -3.01 Q 6.72 -5.16 6.72 -9.43 L 6.72 -9.43 Q 6.27 -9.88 5.39 -10.76 L 5.39 -10.76 Q 4.73 -10.76 3.38 -10.76 L 3.38 -10.76 Q 3.05 -10.43 2.71 -10.1 L 2.71 -10.1 Q 2.38 -9.77 2.05 -9.43 Z" stroke-linecap="round" />
</g>
</g>
</g>
<g transform="matrix(1.8607830164804182 -0.47782702536561433 0.47782702536561433 1.8607830164804182 897.1675674788497 744.1248512323946)"  >
<g style=""  paint-order="stroke"   >
		<g transform="matrix(1 0 0 1 0 0)" id="59c59a22-22c5-4ce5-a0bc-1a970436b470-path-0"  >
<path style="stroke: none; stroke-width: 0; stroke-dasharray: none; stroke-linecap: butt; stroke-dashoffset: 0; stroke-linejoin: miter; stroke-miterlimit: 4; fill: rgb(255,145,77); fill-rule: nonzero; opacity: 1;"  paint-order="stroke"  transform=" translate(-4.405, 6.2)" d="M 8.38 -12.4 L 8.38 -12.4 Q 8.38 -11.86 8.38 -10.76 L 8.38 -10.76 Q 7.77 -10.76 6.54 -10.76 L 6.54 -10.76 Q 6.37 -10.74 5.84 -10.55 L 5.84 -10.55 Q 5.31 -10.35 5.23 -9.55 L 5.23 -9.55 Q 5.23 -6.37 5.23 0 L 5.23 0 Q 4.69 0 3.57 0 L 3.57 0 Q 3.57 -3.59 3.57 -10.76 L 3.57 -10.76 Q 2.54 -10.76 0.43 -10.76 L 0.43 -10.76 Q 0.43 -11.31 0.43 -12.4 L 0.43 -12.4 Q 1.48 -12.4 3.57 -12.4 L 3.57 -12.4 Q 4.14 -12.4 5.23 -12.4 L 5.23 -12.4 Q 6.02 -12.4 6.82 -12.4 L 6.82 -12.4 Q 7.6 -12.4 8.38 -12.4 Z" stroke-linecap="round" />
</g>
</g>
</g>
<g transform="matrix(1.8750689863215284 -0.418268331489333 0.41826833148933307 1.8750689863215286 872.741621029808 762.3115437778654)"  >
<g style=""  paint-order="stroke"   >
		<g transform="matrix(0.9999999999999999 0 0 1 0 0)" id="ec8df711-c7eb-4e85-bd71-6c2a32f71936-path-0"  >
<path style="stroke: none; stroke-width: 0; stroke-dasharray: none; stroke-linecap: butt; stroke-dashoffset: 0; stroke-linejoin: miter; stroke-miterlimit: 4; fill: rgb(255,145,77); fill-rule: nonzero; opacity: 1;"  paint-order="stroke"  transform=" translate(0, 0)" d="" stroke-linecap="round" />
</g>
</g>
</g>
<g transform="matrix(1.8874491537227505 -0.3582845136242836 0.3582845136242836 1.8874491537227505 832.7541863995011 758.4903603742803)"  >
<g style=""  paint-order="stroke"   >
		<g transform="matrix(1 0 0 1 0 0)" id="800fa2dc-8147-4d2a-bf4b-2e49059315e0-path-0"  >
<path style="stroke: none; stroke-width: 0; stroke-dasharray: none; stroke-linecap: butt; stroke-dashoffset: 0; stroke-linejoin: miter; stroke-miterlimit: 4; fill: rgb(255,145,77); fill-rule: nonzero; opacity: 1;"  paint-order="stroke"  transform=" translate(-4.375, 6.2)" d="M 8.36 -12.4 L 8.36 -12.4 Q 8.36 -8.26 8.36 0 L 8.36 0 Q 7.81 0 6.72 0 L 6.72 0 Q 6.72 -1.8 6.72 -5.41 L 6.72 -5.41 Q 5.16 -6.97 2.05 -10.08 L 2.05 -10.08 Q 2.05 -6.72 2.05 0 L 2.05 0 Q 1.5 0 0.39 0 L 0.39 0 Q 0.39 -4.14 0.39 -12.4 L 0.39 -12.4 Q 0.96 -12.4 2.05 -12.4 L 2.05 -12.4 Q 2.05 -12.4 2.05 -12.4 L 2.05 -12.4 Q 2.05 -12.4 2.05 -12.4 L 2.05 -12.4 Q 2.05 -12.4 2.05 -12.4 L 2.05 -12.4 Q 2.05 -12.4 2.05 -12.4 L 2.05 -12.4 Q 3.59 -10.84 6.72 -7.73 L 6.72 -7.73 Q 6.72 -9.3 6.72 -12.4 L 6.72 -12.4 Q 7.27 -12.4 8.36 -12.4 Z" stroke-linecap="round" />
</g>
</g>
</g>
<g transform="matrix(1.8988622533532205 -0.2918120000651895 0.2918120000651895 1.8988622533532205 796.99215415808 764.6475530862537)"  >
<g style=""  paint-order="stroke"   >
		<g transform="matrix(1 0 0 1 0 0)" id="ce1f494e-38f8-4eb2-a00e-a2ccacb515a8-path-0"  >
<path style="stroke: none; stroke-width: 0; stroke-dasharray: none; stroke-linecap: butt; stroke-dashoffset: 0; stroke-linejoin: miter; stroke-miterlimit: 4; fill: rgb(255,145,77); fill-rule: nonzero; opacity: 1;"  paint-order="stroke"  transform=" translate(-4.385000000000001, 6.19)" d="M 3.42 -10.74 L 3.42 -10.74 Q 3.36 -10.74 3.01 -10.68 L 3.01 -10.68 Q 2.68 -10.63 2.4 -10.33 L 2.4 -10.33 Q 2.25 -10.16 2.15 -9.92 L 2.15 -9.92 Q 2.05 -9.67 2.05 -9.32 L 2.05 -9.32 Q 3.59 -9.32 6.64 -9.32 L 6.64 -9.32 Q 6.64 -8.77 6.64 -7.66 L 6.64 -7.66 Q 5.12 -7.66 2.05 -7.66 L 2.05 -7.66 Q 2.05 -5.66 2.05 -1.64 L 2.05 -1.64 Q 4.16 -1.64 8.38 -1.64 L 8.38 -1.64 Q 8.38 -1.09 8.38 0 L 8.38 0 Q 6.27 0 2.05 0 L 2.05 0 Q 2.05 0.02 2.05 0.02 L 2.05 0.02 Q 1.5 0.02 0.39 0.02 L 0.39 0.02 Q 0.39 -4.12 0.39 -12.4 L 0.39 -12.4 Q 0.82 -12.4 1.23 -12.4 L 1.23 -12.4 Q 1.64 -12.4 2.05 -12.4 L 2.05 -12.4 Q 4.16 -12.4 8.38 -12.4 L 8.38 -12.4 Q 8.38 -11.84 8.38 -10.74 L 8.38 -10.74 Q 7.13 -10.74 5.9 -10.74 L 5.9 -10.74 Q 4.65 -10.74 3.42 -10.74 Z" stroke-linecap="round" />
</g>
</g>
</g>
<g transform="matrix(1.9079350549871448 -0.2249798358584961 0.2249798358584961 1.907935054987145 761.0197400899854 769.5094476755572)"  >
<g style=""  paint-order="stroke"   >
		<g transform="matrix(1 0 0 1 0 0)" id="5e7b2acb-97e9-4eaf-9d68-eb4a25872b77-path-0"  >
<path style="stroke: none; stroke-width: 0; stroke-dasharray: none; stroke-linecap: butt; stroke-dashoffset: 0; stroke-linejoin: miter; stroke-miterlimit: 4; fill: rgb(255,145,77); fill-rule: nonzero; opacity: 1;"  paint-order="stroke"  transform=" translate(-4.385000000000001, 6.2)" d="M 5.08 0 L 5.08 0 Q 5.08 0 5.08 0 L 5.08 0 Q 5.08 0 5.08 0 L 5.08 0 Q 5.08 0 5.08 0 L 5.08 0 Q 4.61 0 3.67 0 L 3.67 0 Q 3.67 0 3.67 0 L 3.67 0 Q 2.58 -1.09 0.39 -3.26 L 0.39 -3.26 Q 0.39 -3.28 0.39 -3.28 L 0.39 -3.28 Q 0.39 -3.28 0.39 -3.28 L 0.39 -3.28 Q 0.39 -6.33 0.39 -12.4 L 0.39 -12.4 Q 0.96 -12.4 2.05 -12.4 L 2.05 -12.4 Q 2.05 -9.59 2.05 -3.95 L 2.05 -3.95 Q 2.83 -3.18 4.38 -1.62 L 4.38 -1.62 Q 5.16 -2.4 6.74 -3.98 L 6.74 -3.98 Q 6.74 -6.78 6.74 -12.4 L 6.74 -12.4 Q 7.29 -12.4 8.38 -12.4 L 8.38 -12.4 Q 8.38 -9.38 8.38 -3.3 L 8.38 -3.3 Q 8.38 -3.3 8.38 -3.3 L 8.38 -3.3 Q 7.29 -2.19 5.08 0 L 5.08 0 Q 5.08 0 5.08 0 Z" stroke-linecap="round" />
</g>
</g>
</g>
<g transform="matrix(1.9146563766341245 -0.1578703898962709 0.15787038989627092 1.9146563766341247 724.8645171198903 773.111025652107)"  >
<g style=""  paint-order="stroke"   >
		<g transform="matrix(0.9999999999999999 0 0 1 0 0)" id="ae1ca16a-c4fa-4b7f-9bbd-c29bfafea799-path-0"  >
<path style="stroke: none; stroke-width: 0; stroke-dasharray: none; stroke-linecap: butt; stroke-dashoffset: 0; stroke-linejoin: miter; stroke-miterlimit: 4; fill: rgb(255,145,77); fill-rule: nonzero; opacity: 1;"  paint-order="stroke"  transform=" translate(-4.375, 6.21)" d="M 8.36 -10 L 8.36 -10 Q 8.36 -10 8.36 -10 L 8.36 -10 Q 8.36 -6.66 8.36 0 L 8.36 0 Q 7.81 0 6.72 0 L 6.72 0 Q 6.72 -2.56 6.72 -7.68 L 6.72 -7.68 Q 5.16 -7.68 2.05 -7.68 L 2.05 -7.68 Q 2.05 -5.12 2.05 0 L 2.05 0 Q 1.5 0 0.39 0 L 0.39 0 Q 0.39 -4.14 0.39 -12.4 L 0.39 -12.4 Q 0.63 -12.4 0.86 -12.4 L 0.86 -12.4 Q 1.09 -12.4 1.31 -12.4 L 1.31 -12.4 Q 2.85 -12.4 5.94 -12.4 L 5.94 -12.4 Q 5.94 -12.42 5.94 -12.42 L 5.94 -12.42 Q 6.54 -11.82 7.15 -11.21 L 7.15 -11.21 Q 7.75 -10.61 8.36 -10 Z M 2.05 -9.34 L 2.05 -9.34 Q 3.59 -9.34 6.68 -9.34 L 6.68 -9.34 Q 6.21 -9.8 5.25 -10.76 L 5.25 -10.76 Q 4.63 -10.76 3.42 -10.76 L 3.42 -10.76 Q 3.36 -10.76 3.01 -10.7 L 3.01 -10.7 Q 2.68 -10.64 2.4 -10.33 L 2.4 -10.33 Q 2.25 -10.18 2.15 -9.94 L 2.15 -9.94 Q 2.05 -9.69 2.05 -9.34 Z" stroke-linecap="round" />
</g>
</g>
</g>
<g transform="matrix(1.9190179344412595 -0.0905663728130834 0.0905663728130834 1.9190179344412595 688.6576576392647 775.4934958457716)"  >
<g style=""  paint-order="stroke"   >
		<g transform="matrix(0.9999999999999999 0 0 1 0 0)" id="3f5b5ca2-2c7a-472d-a62e-9fdcdbd1091c-path-0"  >
<path style="stroke: none; stroke-width: 0; stroke-dasharray: none; stroke-linecap: butt; stroke-dashoffset: 0; stroke-linejoin: miter; stroke-miterlimit: 4; fill: rgb(255,145,77); fill-rule: nonzero; opacity: 1;"  paint-order="stroke"  transform=" translate(-4.385000000000001, 6.19)" d="M 3.42 -10.74 L 3.42 -10.74 Q 3.36 -10.74 3.01 -10.68 L 3.01 -10.68 Q 2.68 -10.63 2.4 -10.33 L 2.4 -10.33 Q 2.25 -10.16 2.15 -9.92 L 2.15 -9.92 Q 2.05 -9.67 2.05 -9.32 L 2.05 -9.32 Q 3.59 -9.32 6.64 -9.32 L 6.64 -9.32 Q 6.64 -8.77 6.64 -7.66 L 6.64 -7.66 Q 5.12 -7.66 2.05 -7.66 L 2.05 -7.66 Q 2.05 -5.66 2.05 -1.64 L 2.05 -1.64 Q 4.16 -1.64 8.38 -1.64 L 8.38 -1.64 Q 8.38 -1.09 8.38 0 L 8.38 0 Q 6.27 0 2.05 0 L 2.05 0 Q 2.05 0.02 2.05 0.02 L 2.05 0.02 Q 1.5 0.02 0.39 0.02 L 0.39 0.02 Q 0.39 -4.12 0.39 -12.4 L 0.39 -12.4 Q 0.82 -12.4 1.23 -12.4 L 1.23 -12.4 Q 1.64 -12.4 2.05 -12.4 L 2.05 -12.4 Q 4.16 -12.4 8.38 -12.4 L 8.38 -12.4 Q 8.38 -11.84 8.38 -10.74 L 8.38 -10.74 Q 7.13 -10.74 5.9 -10.74 L 5.9 -10.74 Q 4.65 -10.74 3.42 -10.74 Z" stroke-linecap="round" />
</g>
</g>
</g>
<g transform="matrix(1.9210143529027797 -0.02315073504731369 0.02315073504731369 1.9210143529027797 652.3480167629971 776.5495130109323)"  >
<g style=""  paint-order="stroke"   >
		<g transform="matrix(1 0 0 1 0 0)" id="f35cbeba-267d-4935-a132-47be97f293c7-path-0"  >
<path style="stroke: none; stroke-width: 0; stroke-dasharray: none; stroke-linecap: butt; stroke-dashoffset: 0; stroke-linejoin: miter; stroke-miterlimit: 4; fill: rgb(255,145,77); fill-rule: nonzero; opacity: 1;"  paint-order="stroke"  transform=" translate(-4.375, 6.2)" d="M 6.72 -12.4 L 6.72 -12.4 Q 7.27 -12.4 8.36 -12.4 L 8.36 -12.4 Q 8.36 -8.28 8.36 0 L 8.36 0 Q 7.81 0 6.72 0 L 6.72 0 Q 6.72 -2.56 6.72 -7.7 L 6.72 -7.7 Q 5.61 -7.7 3.42 -7.7 L 3.42 -7.7 Q 3.36 -7.7 3.05 -7.64 L 3.05 -7.64 Q 2.73 -7.58 2.44 -7.32 L 2.44 -7.32 Q 2.3 -7.19 2.19 -6.97 L 2.19 -6.97 Q 2.07 -6.76 2.05 -6.45 L 2.05 -6.45 Q 2.05 -4.3 2.05 0 L 2.05 0 Q 1.5 0 0.39 0 L 0.39 0 Q 0.39 -4.14 0.39 -12.4 L 0.39 -12.4 Q 0.96 -12.4 2.05 -12.4 L 2.05 -12.4 Q 2.05 -11.39 2.05 -9.34 L 2.05 -9.34 Q 3.61 -9.34 6.72 -9.34 L 6.72 -9.34 Q 6.72 -10.1 6.72 -10.88 L 6.72 -10.88 Q 6.72 -11.64 6.72 -12.4 Z" stroke-linecap="round" />
</g>
</g>
</g>
<g transform="matrix(1.9207760745164564 0.03809687857118019 -0.038096878571180194 1.9207760745164566 624.3566538589382 788.431298694223)"  >
<g style=""  paint-order="stroke"   >
		<g transform="matrix(0.9999999999999999 0 0 1 0 0)" id="30e68e61-ce16-46c1-90c7-bd686da10c1f-path-0"  >
<path style="stroke: none; stroke-width: 0; stroke-dasharray: none; stroke-linecap: butt; stroke-dashoffset: 0; stroke-linejoin: miter; stroke-miterlimit: 4; fill: rgb(255,145,77); fill-rule: nonzero; opacity: 1;"  paint-order="stroke"  transform=" translate(0, 0)" d="" stroke-linecap="round" />
</g>
</g>
</g>
<g transform="matrix(1.9185855374367213 0.09930577088146478 -0.09930577088146479 1.9185855374367216 586.4282891739995 775.2330509562973)"  >
<g style=""  paint-order="stroke"   >
		<g transform="matrix(0.9999999999999999 0 0 1 0 0)" id="7bc2074a-29aa-4b40-a6f5-6799d791a632-path-0"  >
<path style="stroke: none; stroke-width: 0; stroke-dasharray: none; stroke-linecap: butt; stroke-dashoffset: 0; stroke-linejoin: miter; stroke-miterlimit: 4; fill: rgb(255,145,77); fill-rule: nonzero; opacity: 1;"  paint-order="stroke"  transform=" translate(-4.375, 6.2)" d="M 6.07 0 L 6.07 0 Q 4.73 0 2.05 0 L 2.05 0 Q 2.05 0 2.05 0 L 2.05 0 Q 1.5 0 0.39 0 L 0.39 0 Q 0.39 -4.14 0.39 -12.4 L 0.39 -12.4 Q 0.63 -12.4 0.86 -12.4 L 0.86 -12.4 Q 1.07 -12.4 1.31 -12.4 L 1.31 -12.4 Q 2.5 -12.4 3.69 -12.4 L 3.69 -12.4 Q 4.88 -12.4 6.07 -12.4 L 6.07 -12.4 Q 6.64 -11.82 7.23 -11.25 L 7.23 -11.25 Q 7.79 -10.66 8.36 -10.1 L 8.36 -10.1 Q 8.36 -8.14 8.36 -6.19 L 8.36 -6.19 Q 8.36 -4.24 8.36 -2.3 L 8.36 -2.3 Q 7.79 -1.72 7.23 -1.15 L 7.23 -1.15 Q 6.64 -0.59 6.07 0 Z M 2.05 -9.02 L 2.05 -9.02 Q 2.05 -6.58 2.05 -1.66 L 2.05 -1.66 Q 3.16 -1.66 5.39 -1.66 L 5.39 -1.66 Q 5.82 -2.09 6.72 -2.99 L 6.72 -2.99 Q 6.72 -5.12 6.72 -9.41 L 6.72 -9.41 Q 6.27 -9.86 5.39 -10.74 L 5.39 -10.74 Q 4.73 -10.74 3.4 -10.74 L 3.4 -10.74 Q 3.36 -10.74 3.01 -10.68 L 3.01 -10.68 Q 2.66 -10.63 2.38 -10.31 L 2.38 -10.31 Q 2.23 -10.16 2.13 -9.9 L 2.13 -9.9 Q 2.03 -9.65 2.05 -9.28 L 2.05 -9.28 Q 2.05 -9.2 2.05 -9.14 L 2.05 -9.14 Q 2.05 -9.08 2.05 -9.02 Z" stroke-linecap="round" />
</g>
</g>
</g>
<g transform="matrix(1.9139174827513976 0.1665892247724014 -0.1665892247724014 1.9139174827513976 550.2311659851757 772.7011271678496)"  >
<g style=""  paint-order="stroke"   >
		<g transform="matrix(1 0 0 1 0 0)" id="511e2c83-5541-401b-81ef-c838d87f36cf-path-0"  >
<path style="stroke: none; stroke-width: 0; stroke-dasharray: none; stroke-linecap: butt; stroke-dashoffset: 0; stroke-linejoin: miter; stroke-miterlimit: 4; fill: rgb(255,145,77); fill-rule: nonzero; opacity: 1;"  paint-order="stroke"  transform=" translate(-4.385000000000001, 6.21)" d="M 8.38 -2.32 L 8.38 -2.32 Q 7.6 -1.56 6.07 -0.04 L 6.07 -0.04 Q 6.07 -0.02 6.07 0 L 6.07 0 Q 4.94 0 2.7 0 L 2.7 0 Q 2.7 -0.02 2.7 -0.04 L 2.7 -0.04 Q 1.93 -0.8 0.41 -2.32 L 0.41 -2.32 Q 0.41 -2.32 0.39 -2.32 L 0.39 -2.32 Q 0.39 -2.32 0.39 -2.34 L 0.39 -2.34 Q 0.39 -2.34 0.39 -2.34 L 0.39 -2.34 Q 0.39 -2.34 0.39 -2.34 L 0.39 -2.34 Q 0.39 -4.3 0.39 -6.23 L 0.39 -6.23 Q 0.39 -8.18 0.39 -10.12 L 0.39 -10.12 Q 0.98 -10.68 1.54 -11.27 L 1.54 -11.27 Q 2.13 -11.84 2.7 -12.42 L 2.7 -12.42 Q 3.54 -12.42 4.39 -12.42 L 4.39 -12.42 Q 5.23 -12.42 6.07 -12.42 L 6.07 -12.42 Q 6.86 -11.64 8.38 -10.12 L 8.38 -10.12 Q 8.38 -10.12 8.38 -10.12 L 8.38 -10.12 Q 8.38 -8.16 8.38 -6.21 L 8.38 -6.21 Q 8.38 -4.28 8.38 -2.32 Z M 2.05 -9.43 L 2.05 -9.43 Q 2.05 -7.3 2.05 -3.03 L 2.05 -3.03 Q 2.5 -2.56 3.42 -1.66 L 3.42 -1.66 Q 4.06 -1.66 5.37 -1.66 L 5.37 -1.66 Q 5.82 -2.11 6.72 -3.01 L 6.72 -3.01 Q 6.72 -5.16 6.72 -9.43 L 6.72 -9.43 Q 6.27 -9.88 5.39 -10.76 L 5.39 -10.76 Q 4.73 -10.76 3.38 -10.76 L 3.38 -10.76 Q 3.05 -10.43 2.71 -10.1 L 2.71 -10.1 Q 2.38 -9.77 2.05 -9.43 Z" stroke-linecap="round" />
</g>
</g>
</g>
<g transform="matrix(1.9068905748935876 0.23366736180673492 -0.23366736180673492 1.9068905748935878 514.117728749976 768.9254409350917)"  >
<g style=""  paint-order="stroke"   >
		<g transform="matrix(1 0 0 1 0 0)" id="fe4daf08-ab24-4191-a1e8-0fe82a9b53ec-path-0"  >
<path style="stroke: none; stroke-width: 0; stroke-dasharray: none; stroke-linecap: butt; stroke-dashoffset: 0; stroke-linejoin: miter; stroke-miterlimit: 4; fill: rgb(255,145,77); fill-rule: nonzero; opacity: 1;"  paint-order="stroke"  transform=" translate(-4.385000000000001, 6.21)" d="M 8.38 -2.32 L 8.38 -2.32 Q 7.6 -1.56 6.07 -0.04 L 6.07 -0.04 Q 6.07 -0.02 6.07 0 L 6.07 0 Q 4.94 0 2.7 0 L 2.7 0 Q 2.7 -0.02 2.7 -0.04 L 2.7 -0.04 Q 1.93 -0.8 0.41 -2.32 L 0.41 -2.32 Q 0.41 -2.32 0.39 -2.32 L 0.39 -2.32 Q 0.39 -2.32 0.39 -2.34 L 0.39 -2.34 Q 0.39 -2.34 0.39 -2.34 L 0.39 -2.34 Q 0.39 -2.34 0.39 -2.34 L 0.39 -2.34 Q 0.39 -4.3 0.39 -6.23 L 0.39 -6.23 Q 0.39 -8.18 0.39 -10.12 L 0.39 -10.12 Q 0.98 -10.68 1.54 -11.27 L 1.54 -11.27 Q 2.13 -11.84 2.7 -12.42 L 2.7 -12.42 Q 3.54 -12.42 4.39 -12.42 L 4.39 -12.42 Q 5.23 -12.42 6.07 -12.42 L 6.07 -12.42 Q 6.86 -11.64 8.38 -10.12 L 8.38 -10.12 Q 8.38 -10.12 8.38 -10.12 L 8.38 -10.12 Q 8.38 -8.16 8.38 -6.21 L 8.38 -6.21 Q 8.38 -4.28 8.38 -2.32 Z M 2.05 -9.43 L 2.05 -9.43 Q 2.05 -7.3 2.05 -3.03 L 2.05 -3.03 Q 2.5 -2.56 3.42 -1.66 L 3.42 -1.66 Q 4.06 -1.66 5.37 -1.66 L 5.37 -1.66 Q 5.82 -2.11 6.72 -3.01 L 6.72 -3.01 Q 6.72 -5.16 6.72 -9.43 L 6.72 -9.43 Q 6.27 -9.88 5.39 -10.76 L 5.39 -10.76 Q 4.73 -10.76 3.38 -10.76 L 3.38 -10.76 Q 3.05 -10.43 2.71 -10.1 L 2.71 -10.1 Q 2.38 -9.77 2.05 -9.43 Z" stroke-linecap="round" />
</g>
</g>
</g>
<g transform="matrix(1.897513474343193 0.30045750993732945 -0.3004575099373295 1.897513474343193 478.18554395796673 763.8887605683018)"  >
<g style=""  paint-order="stroke"   >
		<g transform="matrix(1 0 0 1 0 0)" id="1793bd8f-fb78-451e-84a8-b09358c36521-path-0"  >
<path style="stroke: none; stroke-width: 0; stroke-dasharray: none; stroke-linecap: butt; stroke-dashoffset: 0; stroke-linejoin: miter; stroke-miterlimit: 4; fill: rgb(255,145,77); fill-rule: nonzero; opacity: 1;"  paint-order="stroke"  transform=" translate(-4.3950000000000005, 6.2)" d="M 3.4 -10.74 L 3.4 -10.74 Q 3.36 -10.74 3.05 -10.7 L 3.05 -10.7 Q 2.75 -10.64 2.48 -10.41 L 2.48 -10.41 Q 2.32 -10.29 2.21 -10.1 L 2.21 -10.1 Q 2.09 -9.9 2.05 -9.61 L 2.05 -9.61 Q 2.05 -9.51 2.05 -9.32 L 2.05 -9.32 Q 3.59 -9.32 6.64 -9.32 L 6.64 -9.32 Q 6.64 -8.77 6.64 -7.68 L 6.64 -7.68 Q 5.12 -7.68 2.05 -7.68 L 2.05 -7.68 Q 2.05 -5.12 2.05 0 L 2.05 0 Q 1.5 0 0.41 0 L 0.41 0 Q 0.41 -4.14 0.41 -12.4 L 0.41 -12.4 Q 0.64 -12.4 0.86 -12.4 L 0.86 -12.4 Q 1.09 -12.4 1.33 -12.4 L 1.33 -12.4 Q 3.67 -12.4 8.38 -12.4 L 8.38 -12.4 Q 8.38 -11.86 8.38 -10.74 L 8.38 -10.74 Q 7.13 -10.74 5.9 -10.74 L 5.9 -10.74 Q 4.65 -10.74 3.4 -10.74 Z" stroke-linecap="round" />
</g>
</g>
</g>
<g transform="matrix(1.8869715338847421 0.36079153385352597 -0.36079153385352597 1.8869715338847421 448.54803550431564 770.893672456491)"  >
<g style=""  paint-order="stroke"   >
		<g transform="matrix(1 0 0 1 0 0)" id="e35b7743-8016-4522-87bd-71c59400f6ad-path-0"  >
<path style="stroke: none; stroke-width: 0; stroke-dasharray: none; stroke-linecap: butt; stroke-dashoffset: 0; stroke-linejoin: miter; stroke-miterlimit: 4; fill: rgb(255,145,77); fill-rule: nonzero; opacity: 1;"  paint-order="stroke"  transform=" translate(0, 0)" d="" stroke-linecap="round" />
</g>
</g>
</g>
<g transform="matrix(1.8745116933492736 0.42075885265619056 -0.4207588526561906 1.8745116933492738 413.3916632773477 751.4822240507419)"  >
<g style=""  paint-order="stroke"   >
		<g transform="matrix(1 0 0 1 0 0)" id="847c002a-f265-4e7e-a25b-41e59db91855-path-0"  >
<path style="stroke: none; stroke-width: 0; stroke-dasharray: none; stroke-linecap: butt; stroke-dashoffset: 0; stroke-linejoin: miter; stroke-miterlimit: 4; fill: rgb(255,145,77); fill-rule: nonzero; opacity: 1;"  paint-order="stroke"  transform=" translate(-4.375, 6.21)" d="M 8.36 -10 L 8.36 -10 Q 8.36 -10 8.36 -10 L 8.36 -10 Q 8.36 -6.66 8.36 0 L 8.36 0 Q 7.81 0 6.72 0 L 6.72 0 Q 6.72 -2.56 6.72 -7.68 L 6.72 -7.68 Q 5.16 -7.68 2.05 -7.68 L 2.05 -7.68 Q 2.05 -5.12 2.05 0 L 2.05 0 Q 1.5 0 0.39 0 L 0.39 0 Q 0.39 -4.14 0.39 -12.4 L 0.39 -12.4 Q 0.63 -12.4 0.86 -12.4 L 0.86 -12.4 Q 1.09 -12.4 1.31 -12.4 L 1.31 -12.4 Q 2.85 -12.4 5.94 -12.4 L 5.94 -12.4 Q 5.94 -12.42 5.94 -12.42 L 5.94 -12.42 Q 6.54 -11.82 7.15 -11.21 L 7.15 -11.21 Q 7.75 -10.61 8.36 -10 Z M 2.05 -9.34 L 2.05 -9.34 Q 3.59 -9.34 6.68 -9.34 L 6.68 -9.34 Q 6.21 -9.8 5.25 -10.76 L 5.25 -10.76 Q 4.63 -10.76 3.42 -10.76 L 3.42 -10.76 Q 3.36 -10.76 3.01 -10.7 L 3.01 -10.7 Q 2.68 -10.64 2.4 -10.33 L 2.4 -10.33 Q 2.25 -10.18 2.15 -9.94 L 2.15 -9.94 Q 2.05 -9.69 2.05 -9.34 Z" stroke-linecap="round" />
</g>
</g>
</g>
<g transform="matrix(1.86014661680124 0.48029851612785296 -0.480298516127853 1.8601466168012402 383.39965684933964 756.5996285130351)"  >
<g style=""  paint-order="stroke"   >
		<g transform="matrix(1 0 0 1 0 0)" id="7fbe6ef0-622a-4194-8b78-f351f85329d4-path-0"  >
<path style="stroke: none; stroke-width: 0; stroke-dasharray: none; stroke-linecap: butt; stroke-dashoffset: 0; stroke-linejoin: miter; stroke-miterlimit: 4; fill: rgb(255,145,77); fill-rule: nonzero; opacity: 1;"  paint-order="stroke"  transform=" translate(0, 0)" d="" stroke-linecap="round" />
</g>
</g>
</g>
<g transform="matrix(1.843890904769012 0.53935000871589 -0.53935000871589 1.843890904769012 349.56002127578915 735.0357258867233)"  >
<g style=""  paint-order="stroke"   >
		<g transform="matrix(1 0 0 1 0 0)" id="a7132b56-1539-4208-8337-e6fc6c612a42-path-0"  >
<path style="stroke: none; stroke-width: 0; stroke-dasharray: none; stroke-linecap: butt; stroke-dashoffset: 0; stroke-linejoin: miter; stroke-miterlimit: 4; fill: rgb(255,145,77); fill-rule: nonzero; opacity: 1;"  paint-order="stroke"  transform=" translate(-4.385000000000001, 6.19)" d="M 2.73 -9.98 L 2.73 -9.98 Q 2.95 -9.75 3.42 -9.3 L 3.42 -9.3 Q 4.28 -9.3 6.04 -9.3 L 6.04 -9.3 Q 6.04 -9.3 6.04 -9.28 L 6.04 -9.28 Q 6.04 -9.28 6.05 -9.3 L 6.05 -9.3 Q 6.82 -8.52 8.36 -6.97 L 8.36 -6.97 Q 8.36 -6.97 8.36 -6.97 L 8.36 -6.97 Q 8.36 -5.43 8.36 -2.32 L 8.36 -2.32 Q 8.36 -2.32 8.36 -2.32 L 8.36 -2.32 Q 7.6 -1.54 6.05 0 L 6.05 0 Q 6.05 0 6.05 0 L 6.05 0 Q 6.05 0 6.05 0 L 6.05 0 Q 4.94 0 2.75 0 L 2.75 0 Q 2.75 0 2.75 0 L 2.75 0 Q 1.97 -0.78 0.41 -2.34 L 0.41 -2.34 Q 0.8 -2.71 1.56 -3.5 L 1.56 -3.5 Q 2.19 -2.89 3.42 -1.64 L 3.42 -1.64 Q 4.06 -1.64 5.37 -1.64 L 5.37 -1.64 Q 5.82 -2.09 6.72 -3.01 L 6.72 -3.01 Q 6.72 -4.1 6.72 -6.29 L 6.72 -6.29 Q 6.27 -6.74 5.37 -7.66 L 5.37 -7.66 Q 4.49 -7.66 2.73 -7.66 L 2.73 -7.66 Q 2.73 -7.66 2.73 -7.66 L 2.73 -7.66 Q 2.73 -7.66 2.73 -7.66 L 2.73 -7.66 Q 2.73 -7.66 2.73 -7.66 L 2.73 -7.66 Q 2.73 -7.66 2.73 -7.66 L 2.73 -7.66 Q 1.95 -8.42 0.39 -9.98 L 0.39 -9.98 Q 0.78 -10.37 1.56 -11.13 L 1.56 -11.13 Q 1.56 -11.13 1.56 -11.13 L 1.56 -11.13 Q 1.97 -11.56 2.81 -12.38 L 2.81 -12.38 Q 2.81 -12.38 2.81 -12.38 L 2.81 -12.38 Q 4.67 -12.38 8.38 -12.38 L 8.38 -12.38 Q 8.38 -11.84 8.38 -10.74 L 8.38 -10.74 Q 6.74 -10.74 3.5 -10.74 L 3.5 -10.74 Q 3.24 -10.49 2.73 -9.98 Z" stroke-linecap="round" />
</g>
</g>
</g>
<g transform="matrix(1.82382279999455 0.6037404200579538 -0.6037404200579538 1.8238227999945502 314.91131714723457 724.2433372627462)"  >
<g style=""  paint-order="stroke"   >
		<g transform="matrix(1 0 0 1 0 0)" id="4075d31e-3368-4245-b1f1-e1e208459523-path-0"  >
<path style="stroke: none; stroke-width: 0; stroke-dasharray: none; stroke-linecap: butt; stroke-dashoffset: 0; stroke-linejoin: miter; stroke-miterlimit: 4; fill: rgb(255,145,77); fill-rule: nonzero; opacity: 1;"  paint-order="stroke"  transform=" translate(-4.395, 6.19)" d="M 8.36 -12.38 L 8.36 -12.38 Q 8.36 -9.04 8.36 -2.32 L 8.36 -2.32 Q 8.36 -2.32 8.36 -2.32 L 8.36 -2.32 Q 7.6 -1.54 6.04 0 L 6.04 0 Q 6.04 0 6.04 -0.02 L 6.04 -0.02 Q 4.94 -0.02 2.77 -0.02 L 2.77 -0.02 Q 2.75 0 2.75 0 L 2.75 0 Q 1.99 -0.78 0.43 -2.32 L 0.43 -2.32 Q 0.43 -2.32 0.43 -2.32 L 0.43 -2.32 Q 0.43 -5.68 0.43 -12.38 L 0.43 -12.38 Q 0.98 -12.38 2.07 -12.38 L 2.07 -12.38 Q 2.07 -9.26 2.07 -3.01 L 2.07 -3.01 Q 2.54 -2.56 3.44 -1.66 L 3.44 -1.66 Q 4.08 -1.66 5.37 -1.66 L 5.37 -1.66 Q 5.82 -2.11 6.72 -3.01 L 6.72 -3.01 Q 6.72 -6.13 6.72 -12.38 L 6.72 -12.38 Q 7.27 -12.38 8.36 -12.38 Z" stroke-linecap="round" />
</g>
</g>
</g>
<g transform="matrix(1.8015068813845438 0.6673867371441023 -0.6673867371441023 1.8015068813845438 280.61919200321375 712.1948905864253)"  >
<g style=""  paint-order="stroke"   >
		<g transform="matrix(1 0 0 1 0 0)" id="10c0a5c9-bf5f-4d35-a61c-a78f8d7428fd-path-0"  >
<path style="stroke: none; stroke-width: 0; stroke-dasharray: none; stroke-linecap: butt; stroke-dashoffset: 0; stroke-linejoin: miter; stroke-miterlimit: 4; fill: rgb(255,145,77); fill-rule: nonzero; opacity: 1;"  paint-order="stroke"  transform=" translate(-4.375, 6.2)" d="M 8.36 -12.4 L 8.36 -12.4 Q 8.36 -8.26 8.36 0 L 8.36 0 Q 7.81 0 6.72 0 L 6.72 0 Q 6.72 -1.8 6.72 -5.41 L 6.72 -5.41 Q 5.16 -6.97 2.05 -10.08 L 2.05 -10.08 Q 2.05 -6.72 2.05 0 L 2.05 0 Q 1.5 0 0.39 0 L 0.39 0 Q 0.39 -4.14 0.39 -12.4 L 0.39 -12.4 Q 0.96 -12.4 2.05 -12.4 L 2.05 -12.4 Q 2.05 -12.4 2.05 -12.4 L 2.05 -12.4 Q 2.05 -12.4 2.05 -12.4 L 2.05 -12.4 Q 2.05 -12.4 2.05 -12.4 L 2.05 -12.4 Q 2.05 -12.4 2.05 -12.4 L 2.05 -12.4 Q 3.59 -10.84 6.72 -7.73 L 6.72 -7.73 Q 6.72 -9.3 6.72 -12.4 L 6.72 -12.4 Q 7.27 -12.4 8.36 -12.4 Z" stroke-linecap="round" />
</g>
</g>
</g>
<g transform="matrix(1.7793171903176768 0.724473903485643 -0.724473903485643 1.7793171903176768 250.23343336248269 713.2470730390808)"  >
<g style=""  paint-order="stroke"   >
		<g transform="matrix(1 0 0 1 0 0)" id="4d4c8d55-4493-4d0a-9dc6-c371dab5fe96-path-0"  >
<path style="stroke: none; stroke-width: 0; stroke-dasharray: none; stroke-linecap: butt; stroke-dashoffset: 0; stroke-linejoin: miter; stroke-miterlimit: 4; fill: rgb(255,145,77); fill-rule: nonzero; opacity: 1;"  paint-order="stroke"  transform=" translate(0, 0)" d="" stroke-linecap="round" />
</g>
</g>
</g>
<g transform="matrix(1.7553190180336486 0.7808247213818883 -0.7808247213818883 1.7553190180336486 219.56053367529 687.3547253379156)"  >
<g style=""  paint-order="stroke"   >
		<g transform="matrix(1 0 0 1 0 0)" id="5bb236c9-4845-4bfb-8a58-0977a850b4d8-path-0"  >
<path style="stroke: none; stroke-width: 0; stroke-dasharray: none; stroke-linecap: butt; stroke-dashoffset: 0; stroke-linejoin: miter; stroke-miterlimit: 4; fill: rgb(255,145,77); fill-rule: nonzero; opacity: 1;"  paint-order="stroke"  transform=" translate(-4.385000000000001, 6.19)" d="M 3.42 -10.74 L 3.42 -10.74 Q 3.36 -10.74 3.01 -10.68 L 3.01 -10.68 Q 2.68 -10.63 2.4 -10.33 L 2.4 -10.33 Q 2.25 -10.16 2.15 -9.92 L 2.15 -9.92 Q 2.05 -9.67 2.05 -9.32 L 2.05 -9.32 Q 3.59 -9.32 6.64 -9.32 L 6.64 -9.32 Q 6.64 -8.77 6.64 -7.66 L 6.64 -7.66 Q 5.12 -7.66 2.05 -7.66 L 2.05 -7.66 Q 2.05 -5.66 2.05 -1.64 L 2.05 -1.64 Q 4.16 -1.64 8.38 -1.64 L 8.38 -1.64 Q 8.38 -1.09 8.38 0 L 8.38 0 Q 6.27 0 2.05 0 L 2.05 0 Q 2.05 0.02 2.05 0.02 L 2.05 0.02 Q 1.5 0.02 0.39 0.02 L 0.39 0.02 Q 0.39 -4.12 0.39 -12.4 L 0.39 -12.4 Q 0.82 -12.4 1.23 -12.4 L 1.23 -12.4 Q 1.64 -12.4 2.05 -12.4 L 2.05 -12.4 Q 4.16 -12.4 8.38 -12.4 L 8.38 -12.4 Q 8.38 -11.84 8.38 -10.74 L 8.38 -10.74 Q 7.13 -10.74 5.9 -10.74 L 5.9 -10.74 Q 4.65 -10.74 3.42 -10.74 Z" stroke-linecap="round" />
</g>
</g>
</g>
<g transform="matrix(1.7268294429563855 0.8419573478096473 -0.8419573478096473 1.7268294429563855 186.7192205532914 672.0072545302575)"  >
<g style=""  paint-order="stroke"   >
		<g transform="matrix(1 0 0 1 0 0)" id="f59aa9d4-53a8-4325-abdc-a9c46f667ad9-path-0"  >
<path style="stroke: none; stroke-width: 0; stroke-dasharray: none; stroke-linecap: butt; stroke-dashoffset: 0; stroke-linejoin: miter; stroke-miterlimit: 4; fill: rgb(255,145,77); fill-rule: nonzero; opacity: 1;"  paint-order="stroke"  transform=" translate(-4.415000000000001, 6.21)" d="M 8.46 -5.76 L 8.46 -5.76 Q 8.46 -3.85 8.46 0 L 8.46 0 Q 7.89 0 6.8 0 L 6.8 0 Q 6.8 -1.7 6.8 -5.1 L 6.8 -5.1 Q 5.94 -5.96 4.22 -7.68 L 4.22 -7.68 Q 3.91 -7.68 3.32 -7.68 L 3.32 -7.68 Q 3.13 -7.66 2.58 -7.44 L 2.58 -7.44 Q 2.03 -7.21 2.01 -6.35 L 2.01 -6.35 Q 2.01 -6.35 2.01 -6.35 L 2.01 -6.35 Q 2.01 -6.31 2.01 -6.27 L 2.01 -6.27 Q 2.01 -6.25 2.01 -6.21 L 2.01 -6.21 Q 2.03 -6.13 2.03 -6.07 L 2.03 -6.07 Q 2.03 -6.02 2.01 -5.96 L 2.01 -5.96 Q 2.01 -3.98 2.01 0 L 2.01 0 Q 1.46 0 0.37 0 L 0.37 0 Q 0.37 -4.14 0.37 -12.42 L 0.37 -12.42 Q 0.92 -12.42 2.01 -12.42 L 2.01 -12.42 Q 2.01 -11.39 2.01 -9.34 L 2.01 -9.34 Q 2.75 -9.34 4.2 -9.34 L 4.2 -9.34 Q 5.23 -10.35 7.29 -12.42 L 7.29 -12.42 Q 7.68 -12.03 8.46 -11.25 L 8.46 -11.25 Q 7.54 -10.33 5.72 -8.52 L 5.72 -8.52 Q 6.41 -7.83 7.09 -7.15 L 7.09 -7.15 Q 7.77 -6.45 8.46 -5.76 Z" stroke-linecap="round" />
</g>
</g>
</g>
<g transform="matrix(1.696211595815896 0.9020522838568769 -0.9020522838568769 1.696211595815896 154.30331991995547 655.4880339391053)"  >
<g style=""  paint-order="stroke"   >
		<g transform="matrix(0.9999999999999999 0 0 1 0 0)" id="bc3db8c3-d11d-47f3-890e-2c7559ecaeab-path-0"  >
<path style="stroke: none; stroke-width: 0; stroke-dasharray: none; stroke-linecap: butt; stroke-dashoffset: 0; stroke-linejoin: miter; stroke-miterlimit: 4; fill: rgb(255,145,77); fill-rule: nonzero; opacity: 1;"  paint-order="stroke"  transform=" translate(-4.375, 6.21)" d="M 8.36 -10 L 8.36 -10 Q 8.36 -10 8.36 -10 L 8.36 -10 Q 8.36 -6.66 8.36 0 L 8.36 0 Q 7.81 0 6.72 0 L 6.72 0 Q 6.72 -2.56 6.72 -7.68 L 6.72 -7.68 Q 5.16 -7.68 2.05 -7.68 L 2.05 -7.68 Q 2.05 -5.12 2.05 0 L 2.05 0 Q 1.5 0 0.39 0 L 0.39 0 Q 0.39 -4.14 0.39 -12.4 L 0.39 -12.4 Q 0.63 -12.4 0.86 -12.4 L 0.86 -12.4 Q 1.09 -12.4 1.31 -12.4 L 1.31 -12.4 Q 2.85 -12.4 5.94 -12.4 L 5.94 -12.4 Q 5.94 -12.42 5.94 -12.42 L 5.94 -12.42 Q 6.54 -11.82 7.15 -11.21 L 7.15 -11.21 Q 7.75 -10.61 8.36 -10 Z M 2.05 -9.34 L 2.05 -9.34 Q 3.59 -9.34 6.68 -9.34 L 6.68 -9.34 Q 6.21 -9.8 5.25 -10.76 L 5.25 -10.76 Q 4.63 -10.76 3.42 -10.76 L 3.42 -10.76 Q 3.36 -10.76 3.01 -10.7 L 3.01 -10.7 Q 2.68 -10.64 2.4 -10.33 L 2.4 -10.33 Q 2.25 -10.18 2.15 -9.94 L 2.15 -9.94 Q 2.05 -9.69 2.05 -9.34 Z" stroke-linecap="round" />
</g>
</g>
</g>
<g transform="matrix(1.6594763506077659 0.9679722838827804 -0.9679722838827806 1.659476350607766 118.83057955860272 635.7616074212219)"  >
<g style=""  paint-order="stroke"   >
		<g transform="matrix(1 0 0 1 0 0)" id="5c346df0-7060-4c63-8e0a-21f48c51c951-path-0"  >
<path style="stroke: none; stroke-width: 0; stroke-dasharray: none; stroke-linecap: butt; stroke-dashoffset: 0; stroke-linejoin: miter; stroke-miterlimit: 4; fill: rgb(255,145,77); fill-rule: nonzero; opacity: 1;"  paint-order="stroke"  transform=" translate(-6.589999999999999, 6.19)" d="M 12.79 -8.52 L 12.79 -8.52 Q 12.79 -5.68 12.79 0 L 12.79 0 Q 12.25 0 11.15 0 L 11.15 0 Q 11.15 -2.62 11.15 -7.83 L 11.15 -7.83 Q 10.41 -8.57 8.93 -10.06 L 8.93 -10.06 Q 8.54 -9.67 7.75 -8.89 L 7.75 -8.89 Q 8.42 -8.24 9.73 -6.93 L 9.73 -6.93 Q 9.34 -6.54 8.55 -5.76 L 8.55 -5.76 Q 8.2 -6.11 7.5 -6.84 L 7.5 -6.84 Q 7.27 -7.03 6.78 -7.19 L 6.78 -7.19 Q 6.29 -7.34 5.68 -6.82 L 5.68 -6.82 Q 5.35 -6.48 4.71 -5.84 L 4.71 -5.84 Q 4.32 -6.21 3.54 -6.99 L 3.54 -6.99 Q 4.16 -7.64 5.43 -8.89 L 5.43 -8.89 Q 5.04 -9.28 4.26 -10.06 L 4.26 -10.06 Q 3.54 -9.32 2.05 -7.83 L 2.05 -7.83 Q 2.05 -5.23 2.05 0 L 2.05 0 Q 1.5 0 0.39 0 L 0.39 0 Q 0.39 -2.13 0.39 -4.26 L 0.39 -4.26 Q 0.39 -6.39 0.39 -8.52 L 0.39 -8.52 Q 1.07 -9.2 1.76 -9.86 L 1.76 -9.86 Q 2.42 -10.55 3.11 -11.23 L 3.11 -11.23 Q 3.5 -11.6 4.26 -12.38 L 4.26 -12.38 Q 5.04 -11.6 6.6 -10.06 L 6.6 -10.06 Q 6.88 -10.35 7.17 -10.64 L 7.17 -10.64 Q 7.46 -10.94 7.75 -11.23 L 7.75 -11.23 Q 8.14 -11.6 8.93 -12.38 L 8.93 -12.38 Q 9.88 -11.43 10.86 -10.45 L 10.86 -10.45 Q 11.84 -9.49 12.79 -8.52 Z" stroke-linecap="round" />
</g>
</g>
</g>
</svg>