<?xml version="1.0" encoding="UTF-8" standalone="no" ?>
<!DOCTYPE svg PUBLIC "-//W3C//DTD SVG 1.1//EN" "http://www.w3.org/Graphics/SVG/1.1/DTD/svg11.dtd">
<svg xmlns="http://www.w3.org/2000/svg" xmlns:xlink="http://www.w3.org/1999/xlink" version="1.1" width="1280" height="1024" viewBox="0 0 1280 1024" xml:space="preserve">
<desc>Created with Fabric.js 4.4.0</desc>
<defs>
</defs>
<g transform="matrix(1 0 0 1 640 512)" id="background-logo"  >
<rect style="stroke: none; stroke-width: 0; stroke-dasharray: none; stroke-linecap: butt; stroke-dashoffset: 0; stroke-linejoin: miter; stroke-miterlimit: 4; fill: rgb(48,98,177); fill-rule: nonzero; opacity: 1;"  paint-order="stroke"  x="-640" y="-512" rx="0" ry="0" width="1280" height="1024" />
</g>
<g transform="matrix(1.9211538461538462 0 0 1.9211538461538462 641.8385442307692 748.7403033024846)" id="text-logo"  >
<g style=""  paint-order="stroke"   >
		<g transform="matrix(1 0 0 1 0 0)" id="text-logo-path-0"  >
<path style="stroke: none; stroke-width: 0; stroke-dasharray: none; stroke-linecap: butt; stroke-dashoffset: 0; stroke-linejoin: miter; stroke-miterlimit: 4; fill: rgb(254,148,83); fill-rule: nonzero; opacity: 1;"  paint-order="stroke"  transform=" translate(-145.00000000000003, 22.345)" d="M 20.39 -14.52 L 28.51 0 L 41.05 0 L 31.61 -17.03 C 35.97 -19.87 38.48 -24.68 38.48 -29.83 C 38.48 -38.35 31.68 -45.14 23.23 -45.14 L 4.09 -45.14 L 4.09 0 L 15.11 0 L 15.11 -14.52 Z M 15.11 -24.95 L 15.11 -34.72 L 23.23 -34.72 C 26 -34.72 28.12 -32.6 28.12 -29.83 C 28.12 -27.19 25.87 -24.95 23.23 -24.95 Z M 75.31 0 L 87.05 0 L 70.49 -45.14 L 58.74 -45.14 L 42.24 0 L 53.99 0 L 56.89 -7.85 L 72.4 -7.85 Z M 60.65 -18.28 L 64.68 -29.17 L 68.57 -18.28 Z M 116.09 -45.14 L 116.09 -22.18 L 101.44 -45.14 L 90.42 -45.14 L 90.42 0 L 101.44 0 L 101.44 -25.81 L 117.94 0 L 127.12 0 L 127.12 -45.14 Z M 162.43 0 L 176.09 0 L 157.41 -24.62 L 173.91 -45.14 L 160.05 -45.14 L 146.26 -28.18 L 146.26 -45.14 L 135.23 -45.14 L 135.23 0 L 146.26 0 L 146.26 -10.63 L 150.35 -15.77 Z M 178.99 -45.14 L 178.99 0 L 190.01 0 L 190.01 -45.14 Z M 223.87 -45.14 L 223.87 -22.18 L 209.22 -45.14 L 198.2 -45.14 L 198.2 0 L 209.22 0 L 209.22 -25.81 L 225.72 0 L 234.89 0 L 234.89 -45.14 Z M 285.91 -20.72 L 285.91 -25.21 L 260.96 -25.21 L 260.96 -14.78 L 272.58 -14.78 C 270.27 -11.81 266.77 -10.1 263.01 -10.1 C 256.28 -10.1 250.67 -15.71 250.67 -22.37 C 250.67 -29.11 256.34 -34.65 263.01 -34.65 C 267.1 -34.65 270.34 -32.87 272.84 -29.63 L 281.42 -36.43 C 276.94 -42.24 270.4 -45.61 263.01 -45.61 C 250.07 -45.61 239.71 -35.18 239.71 -22.37 C 239.71 -9.5 250.27 0.92 263.01 0.92 C 275.02 0.92 285.91 -8.45 285.91 -20.72 Z" stroke-linecap="round" />
</g>
</g>
</g>
<g transform="matrix(1.9211538461538462 0 0 1.9211538461538462 640.19292666598 876.2598013831571)" id="tagline-ef3236fa-277e-4d5a-bcdd-692149bb7c5f-logo"  >
<g style=""  paint-order="stroke"   >
		<g transform="matrix(1 0 0 1 0 0)" id="tagline-ef3236fa-277e-4d5a-bcdd-692149bb7c5f-logo-path-0"  >
<path style="stroke: none; stroke-width: 0; stroke-dasharray: none; stroke-linecap: butt; stroke-dashoffset: 0; stroke-linejoin: miter; stroke-miterlimit: 4; fill: rgb(234,59,49); fill-rule: nonzero; opacity: 1;"  paint-order="stroke"  transform=" translate(0, 0)" d="" stroke-linecap="round" />
</g>
</g>
</g>
<g transform="matrix(2.1737836858909714 0 0 2.1737836858909714 640.19292666598 364.1286792413374)" id="logo-logo"  >
<g style=""  paint-order="stroke"   >
		<g transform="matrix(2.3022034970172762 0 0 -2.3022034970172762 1.1368684e-13 -95.07409781632242)"  >
<path style="stroke: none; stroke-width: 1; stroke-dasharray: none; stroke-linecap: butt; stroke-dashoffset: 0; stroke-linejoin: miter; stroke-miterlimit: 4; fill: rgb(254,148,83); fill-rule: nonzero; opacity: 1;"  paint-order="stroke"  transform=" translate(-162.5, -171.297)" d="M 146.423 171.297 C 146.423 171.297 158.035 168.176 162.5 158.611 L 162.5 158.611 C 166.968 168.176 178.577 171.297 178.577 171.297 L 178.577 171.297 C 178.577 171.297 166.968 174.42 162.5 183.983 L 162.5 183.983 C 158.035 174.42000000000002 146.423 171.297 146.423 171.297" stroke-linecap="round" />
</g>
		<g transform="matrix(2.3022034970172762 0 0 -2.3022034970172762 -17.677586247122747 -81.40591565453079)"  >
<path style="stroke: none; stroke-width: 1; stroke-dasharray: none; stroke-linecap: butt; stroke-dashoffset: 0; stroke-linejoin: miter; stroke-miterlimit: 4; fill: rgb(254,148,83); fill-rule: nonzero; opacity: 1;"  paint-order="stroke"  transform=" translate(-154.82144931148534, -165.35999999999999)" d="M 146.423 171.297 C 146.423 171.297 158.035 168.176 162.5 158.611 L 162.5 158.611 C 164.067 167.279 163.756 172.10899999999998 154.508 172.10899999999998 L 154.508 172.10899999999998 C 152.336 172.10899999999998 149.672 171.843 146.423 171.29699999999997" stroke-linecap="round" />
</g>
		<g transform="matrix(2.3022034970172762 0 0 -2.3022034970172762 -0.0011511017484622244 116.6181181414101)"  >
<path style="stroke: none; stroke-width: 1; stroke-dasharray: none; stroke-linecap: butt; stroke-dashoffset: 0; stroke-linejoin: miter; stroke-miterlimit: 4; fill: rgb(254,148,83); fill-rule: nonzero; opacity: 1;"  paint-order="stroke"  transform=" translate(-162.4995, -79.345)" d="M 115.961 76.017 L 209.038 76.017 L 209.038 82.673 L 115.96100000000001 82.673 z" stroke-linecap="round" />
</g>
		<g transform="matrix(2.3022034970172762 0 0 -2.3022034970172762 0 1.5636675705989092)"  >
<path style="stroke: none; stroke-width: 1; stroke-dasharray: none; stroke-linecap: butt; stroke-dashoffset: 0; stroke-linejoin: miter; stroke-miterlimit: 4; fill: rgb(254,148,83); fill-rule: nonzero; opacity: 1;"  paint-order="stroke"  transform=" translate(-162.49999999999997, -129.32079524133087)" d="M 162.5 146.731 C 154.827 161.024 138.893 171.037 116.826 169.066 L 116.826 169.066 C 124.741 161.581 128.62199999999999 152.12 129.88299999999998 145.787 L 129.88299999999998 145.787 C 123.75699999999998 148.618 110.77999999999997 151.745 100.43899999999998 150.622 L 100.43899999999998 150.622 C 115.53899999999997 139.18 116.25699999999998 120.14900000000002 116.18699999999998 106.9 L 116.18699999999998 106.9 L 116.17599999999999 89.328 L 155.33499999999998 89.328 L 155.33499999999998 101.12700000000001 C 155.33499999999998 113.39900000000002 151.82799999999997 124.816 145.462 133.275 L 145.462 133.275 C 143.075 136.447 140.291 139.199 137.14399999999998 141.514 L 137.14399999999998 141.514 C 136.36299999999997 148.372 134.61299999999997 155.485 130.76199999999997 162.008 L 130.76199999999997 162.008 C 144.26899999999998 159.87800000000001 156.97899999999998 149.46 162.49999999999997 131.184 L 162.49999999999997 131.184 C 168.02199999999996 149.46 180.73199999999997 159.878 194.23799999999997 162.008 L 194.23799999999997 162.008 C 190.38699999999997 155.485 188.63699999999997 148.372 187.85599999999997 141.514 L 187.85599999999997 141.514 C 184.70899999999997 139.199 181.92499999999995 136.447 179.53699999999998 133.275 L 179.53699999999998 133.275 C 173.171 124.816 169.66499999999996 113.399 169.66499999999996 101.12700000000001 L 169.66499999999996 101.12700000000001 L 169.66499999999996 89.328 L 208.82399999999996 89.328 L 208.81299999999996 106.9 C 208.74299999999997 120.149 209.46099999999996 139.18 224.56099999999995 150.622 L 224.56099999999995 150.622 C 214.22099999999995 151.745 201.24399999999994 148.61800000000002 195.11699999999996 145.787 L 195.11699999999996 145.787 C 196.37799999999996 152.12 200.25899999999996 161.58100000000002 208.17399999999995 169.066 L 208.17399999999995 169.066 C 206.30799999999994 169.233 204.48699999999994 169.31300000000002 202.70999999999995 169.31300000000002 L 202.70999999999995 169.31300000000002 C 183.47199999999995 169.31400000000002 169.52399999999994 159.81600000000003 162.49999999999994 146.73100000000002 M 193.82199999999995 121.78000000000003 C 193.82199999999995 122.82900000000004 193.81299999999996 123.91200000000003 193.80599999999995 125.02400000000003 L 193.80599999999995 125.02400000000003 C 193.77599999999995 129.01000000000002 193.74599999999995 133.31600000000003 194.06299999999996 137.70100000000002 L 194.06299999999996 137.70100000000002 C 199.11699999999996 140.72500000000002 204.44099999999997 142.282 208.87399999999997 143.07500000000002 L 208.87399999999997 143.07500000000002 C 202.13599999999997 132.115 202.20899999999997 118.32900000000002 202.26999999999995 106.86600000000001 L 202.26999999999995 106.86600000000001 L 202.27999999999994 95.87200000000001 L 193.82199999999995 95.87200000000001 z M 122.73 106.866 C 122.792 118.329 122.863 132.115 116.126 143.075 L 116.126 143.075 C 120.559 142.28199999999998 125.88300000000001 140.725 130.936 137.701 L 130.936 137.701 C 131.25300000000001 133.316 131.22400000000002 129.01 131.19400000000002 125.024 L 131.19400000000002 125.024 C 131.186 123.912 131.17900000000003 122.82900000000001 131.17900000000003 121.78 L 131.17900000000003 121.78 L 131.17900000000003 95.872 L 122.72000000000003 95.872 z M 176.21 101.127 C 176.21 116.303 180.953 126.112 187.28300000000002 132.441 L 187.28300000000002 132.441 C 187.228 129.828 187.246 127.32000000000001 187.264 124.977 L 187.264 124.977 C 187.27100000000002 123.881 187.27700000000002 122.813 187.27700000000002 121.78 L 187.27700000000002 121.78 L 187.27700000000002 95.872 L 176.21 95.872 Z M 137.722 121.78 C 137.722 122.813 137.729 123.881 137.73600000000002 124.977 L 137.73600000000002 124.977 C 137.75400000000002 127.32000000000001 137.77200000000002 129.828 137.717 132.441 L 137.717 132.441 C 144.04700000000003 126.11200000000001 148.79100000000003 116.303 148.79100000000003 101.12700000000001 L 148.79100000000003 101.12700000000001 L 148.79100000000003 95.87200000000001 L 137.72200000000004 95.87200000000001 z" stroke-linecap="round" />
</g>
		<g transform="matrix(2.3022034970172762 0 0 -2.3022034970172762 -64.81868186454875 9.737169690634687)"  >
<path style="stroke: none; stroke-width: 1; stroke-dasharray: none; stroke-linecap: butt; stroke-dashoffset: 0; stroke-linejoin: miter; stroke-miterlimit: 4; fill: rgb(254,148,83); fill-rule: nonzero; opacity: 1;"  paint-order="stroke"  transform=" translate(-134.34493814359695, -125.7705)" d="M 131.194 125.024 C 131.18599999999998 123.912 131.179 122.82900000000001 131.179 121.78 L 131.179 121.78 L 131.179 113.84 L 137.722 113.84 L 137.722 121.78 C 137.722 122.813 137.729 123.881 137.73600000000002 124.977 L 137.73600000000002 124.977 C 137.75400000000002 127.32000000000001 137.77200000000002 129.828 137.717 132.441 L 137.717 132.441 C 134.756 135.827 130.936 137.701 130.936 137.701 L 130.936 137.701 C 131.25300000000001 133.316 131.22400000000002 129.01 131.19400000000002 125.024" stroke-linecap="round" />
</g>
		<g transform="matrix(2.3022034970172762 0 0 -2.3022034970172762 64.81753076280057 9.737169690634687)"  >
<path style="stroke: none; stroke-width: 1; stroke-dasharray: none; stroke-linecap: butt; stroke-dashoffset: 0; stroke-linejoin: miter; stroke-miterlimit: 4; fill: rgb(254,148,83); fill-rule: nonzero; opacity: 1;"  paint-order="stroke"  transform=" translate(-190.65456185640306, -125.7705)" d="M 187.283 132.441 C 187.22799999999998 129.828 187.24599999999998 127.32000000000001 187.26399999999998 124.977 L 187.26399999999998 124.977 C 187.271 123.881 187.277 122.813 187.277 121.78 L 187.277 121.78 L 187.277 113.84 L 193.82199999999997 113.84 L 193.82199999999997 121.78 C 193.82199999999997 122.82900000000001 193.813 123.912 193.80599999999998 125.024 L 193.80599999999998 125.024 C 193.77599999999998 129.01 193.74599999999998 133.316 194.063 137.701 L 194.063 137.701 C 194.063 137.701 190.244 135.827 187.283 132.441" stroke-linecap="round" />
</g>
</g>
</g>
</svg>